<?xml version="1.0" encoding="UTF-8" standalone="no"?>
<!-- Created with Inkscape (http://www.inkscape.org/) -->

<svg
   version="1.1"
   id="svg351"
   width="32.480125"
   height="31.317686"
   viewBox="0 0 32.480125 31.317686"
   sodipodi:docname="logo.svg"
   inkscape:version="1.1.1 (1:1.1+202109281949+c3084ef5ed)"
   xmlns:inkscape="http://www.inkscape.org/namespaces/inkscape"
   xmlns:sodipodi="http://sodipodi.sourceforge.net/DTD/sodipodi-0.dtd"
   xmlns="http://www.w3.org/2000/svg"
   xmlns:svg="http://www.w3.org/2000/svg">
  <defs
     id="defs355" />
  <sodipodi:namedview
     id="namedview353"
     pagecolor="#505050"
     bordercolor="#eeeeee"
     borderopacity="1"
     inkscape:pageshadow="0"
     inkscape:pageopacity="0"
     inkscape:pagecheckerboard="true"
     showgrid="false"
     fit-margin-top="0"
     fit-margin-left="0"
     fit-margin-right="0"
     fit-margin-bottom="0"
     inkscape:zoom="3.7511111"
     inkscape:cx="86.507701"
     inkscape:cy="84.641588"
     inkscape:window-width="1920"
     inkscape:window-height="1016"
     inkscape:window-x="0"
     inkscape:window-y="27"
     inkscape:window-maximized="1"
     inkscape:current-layer="svg351" />
  <g
     id="g379"
     style="display:inline"
     transform="matrix(0.15702356,0,0,0.15702356,-1.1147355,-1.2690884)">
    <path
       style="display:inline;fill:#b13031"
       d="M 92.5,206.46837 C 53.866804,200.26315 22.521303,172.86734 10.727949,135 8.2282644,126.97375 7.6934639,123.32816 7.2805472,111.5 6.8454746,99.037179 7.0703291,96.270949 9.328431,86.306304 12.135335,73.919883 17.934739,61.031571 25.370109,50.656067 30.074508,44.091428 41.834365,32.538351 49.093111,27.350198 72.48502,10.630949 100.23622,4.696265 130.5874,9.922383 c 14.44277,2.486876 25.54484,6.946338 38.05371,15.285348 23.06883,15.378795 38.03145,37.344385 43.87258,64.406314 2.48956,11.534105 1.6419,32.470805 -1.79784,44.405715 -4.74634,16.46845 -15.54234,34.01333 -28.34536,46.06485 -13.19227,12.41792 -33.43229,22.72568 -50.87049,25.90713 -10.05311,1.8341 -29.09929,2.06687 -39,0.47663 z M 116,137.77908 c 10.36692,-15.45281 30.10294,-35.04151 45.54071,-45.200753 3.27761,-2.15692 7.12092,-4.701802 8.5407,-5.655293 1.41978,-0.953491 6.67281,-3.788446 11.67341,-6.299899 5.0006,-2.511453 9.40226,-5.06828 9.78146,-5.681839 2.7308,-4.418523 -9.34377,-3.056159 -27.03628,3.050483 -19.93356,6.880149 -33.36603,13.298648 -47.68288,22.784531 l -6.68288,4.42786 -3.31712,-2.49607 C 95.271578,94.020279 72.795188,83.11547 52.950591,76.57382 38.700132,71.876243 27.013062,70.97605 29.349154,74.755926 c 0.316189,0.511605 7.281143,4.628464 15.477676,9.148577 8.196533,4.520112 18.451123,11.070108 22.787978,14.555547 14.7044,11.81761 29.856847,27.77213 37.331712,39.30781 4.44884,6.86574 6.45358,6.86777 11.05348,0.0112 z"
       id="path383" />
  </g>
</svg>
