<svg width="52.916664mm" height="52.916668mm" viewBox="0 0 52.916663 52.916669" version="1.1" id="svg5" inkscape:version="1.1.1 (1:1.1+202109281949+c3084ef5ed)" sodipodi:docname="carmen.svg" xmlns:inkscape="http://www.inkscape.org/namespaces/inkscape" xmlns:sodipodi="http://sodipodi.sourceforge.net/DTD/sodipodi-0.dtd" xmlns="http://www.w3.org/2000/svg" xmlns:svg="http://www.w3.org/2000/svg">
   <sodipodi:namedview id="namedview7" pagecolor="#505050" bordercolor="#eeeeee" borderopacity="1" inkscape:pageshadow="0" inkscape:pageopacity="0" inkscape:pagecheckerboard="true" inkscape:document-units="mm" showgrid="false" fit-margin-top="0" fit-margin-left="0" fit-margin-right="0" fit-margin-bottom="0" inkscape:zoom="2.5212181" inkscape:cx="54.537129" inkscape:cy="109.27258" inkscape:window-width="1920" inkscape:window-height="1016" inkscape:window-x="0" inkscape:window-y="27" inkscape:window-maximized="1" inkscape:current-layer="svg5" />
   <defs id="defs2" />
   <g id="g490" transform="translate(-62.854694,-45.659702)">
      <path style="display:none;fill:#b9b9b9;fill-opacity:1;stroke-width:0.264583" d="M 73.76756,87.661126 C 65.288257,79.179976 62.854694,76.600228 62.854694,76.092723 c 0,-0.446524 0.520732,-1.17856 1.646002,-2.313922 l 1.646002,-1.660765 -1.646002,-1.660766 c -0.905301,-0.913419 -1.646002,-1.896216 -1.646002,-2.183993 0,-0.715404 21.900443,-22.613575 22.615924,-22.613575 0.286483,0 1.268224,0.740701 2.181643,1.646003 l 1.660766,1.646002 1.660765,-1.646002 c 0.913419,-0.905302 1.896216,-1.646003 2.183993,-1.646003 0.715404,0 22.613575,21.900444 22.613575,22.615925 0,0.286483 -0.7407,1.268224 -1.646,2.181643 l -1.646,1.660766 1.646,1.660765 c 1.12851,1.13863 1.646,1.866861 1.646,2.316298 0,0.953497 -21.530048,22.48127 -22.483646,22.48127 -0.446524,0 -1.17856,-0.520732 -2.313922,-1.646002 l -1.660765,-1.646002 -1.660766,1.646002 c -1.138629,1.128509 -1.86686,1.646002 -2.316298,1.646002 -0.510714,0 -3.066409,-2.411399 -11.568403,-10.915243 z m 13.266311,-3.63684 c 0.235503,-3.565261 0.494676,-7.285964 0.575943,-8.26823 l 0.147754,-1.785937 h -0.886474 c -1.393393,0 -3.800149,0.717725 -6.238641,1.860439 -1.232326,0.577487 -2.283643,1.049978 -2.336258,1.049978 -0.05262,0 -0.09567,-2.083594 -0.09567,-4.630209 0,-2.546614 0.04305,-4.630208 0.09567,-4.630208 0.05262,0 1.105715,0.473324 2.340218,1.051833 2.245871,1.052451 4.979212,1.84732 6.37772,1.854673 0.736151,0.0039 0.741995,-0.009 0.566989,-1.25286 -0.241871,-1.71907 -1.32539,-4.939686 -2.218221,-6.593382 -0.731761,-1.355359 -0.733407,-1.369232 -0.180131,-1.517742 0.730975,-0.196207 7.939801,-0.201591 8.448696,-0.0063 0.319383,0.122559 0.180313,0.6056 -0.742718,2.579687 -1.03315,2.209605 -1.415414,3.448469 -1.831186,5.934621 -0.133051,0.795586 -0.08989,0.859602 0.577183,0.855985 1.377363,-0.0075 4.123071,-0.808804 6.354895,-1.854673 1.234503,-0.578509 2.2876,-1.051833 2.34022,-1.051833 0.0526,0 0.0957,2.083594 0.0957,4.630209 0,2.546614 -0.0481,4.630208 -0.10688,4.630208 -0.0588,0 -1.100587,-0.47317 -2.315109,-1.051489 -2.338274,-1.113416 -4.820007,-1.858927 -6.188183,-1.858927 h -0.826077 l 0.08371,1.389063 c 0.488527,8.106357 0.982062,14.678323 1.121961,14.94019 0.107516,0.20125 3.643566,-3.145499 9.431298,-8.926397 l 9.25929,-9.248357 -10.78626,-10.783852 -10.786254,-10.783852 -10.781771,10.764421 -10.78177,10.764422 9.2442,9.411835 c 5.084312,5.176506 9.326956,9.321191 9.428098,9.21041 0.101145,-0.110784 0.376584,-3.118456 0.612087,-6.683716 z M 72.379694,74.193454 c 0,-0.626422 -0.200631,-1.024991 -0.727604,-1.44544 l -0.727604,-0.580525 0.727604,-0.33178 c 0.582263,-0.265506 0.727604,-0.508275 0.727604,-1.215353 0,-1.004779 0.02853,-1.019227 1.0102,-0.511587 0.618016,0.31959 0.79099,0.31959 1.228053,0 0.748869,-0.547585 0.936747,-0.462214 0.936747,0.425656 0,0.609433 0.194789,0.916096 0.825542,1.299681 l 0.825542,0.502042 -0.825542,0.426905 c -0.687858,0.355706 -0.825542,0.582713 -0.825542,1.361112 v 0.934204 l -0.79375,-0.468879 c -0.75973,-0.448784 -0.82777,-0.448784 -1.5875,0 l -0.79375,0.468879 z m 30.956246,0 c 0,-0.626422 -0.20063,-1.024991 -0.7276,-1.44544 l -0.72761,-0.580525 0.72761,-0.33178 c 0.58226,-0.265506 0.7276,-0.508275 0.7276,-1.215353 0,-1.004779 0.0285,-1.019227 1.0102,-0.511587 0.61802,0.31959 0.79099,0.31959 1.22806,0 0.74729,-0.546431 0.93674,-0.462362 0.93674,0.415668 0,0.548196 0.20109,0.919409 0.66146,1.221055 0.3638,0.238371 0.66146,0.51966 0.66146,0.625086 0,0.105428 -0.29766,0.327305 -0.66146,0.493067 -0.52615,0.239731 -0.66146,0.495025 -0.66146,1.248053 v 0.946671 l -0.79375,-0.468879 c -0.75973,-0.448784 -0.82777,-0.448784 -1.5875,0 l -0.79375,0.468879 z M 88.916152,58.624286 c -0.316495,-0.612031 -0.590627,-0.79375 -1.19742,-0.79375 -0.885888,0 -0.956384,-0.169532 -0.400508,-0.963154 0.335405,-0.478859 0.336516,-0.61768 0.0084,-1.051059 -0.554929,-0.732986 -0.483521,-0.896204 0.392094,-0.896204 0.606793,0 0.880925,-0.181719 1.19742,-0.79375 0.225755,-0.436563 0.46388,-0.79375 0.529166,-0.79375 0.06529,0 0.303411,0.357187 0.529167,0.79375 0.321339,0.621403 0.587483,0.79375 1.225727,0.79375 0.677725,0 0.780865,0.07811 0.61137,0.463021 -0.112144,0.254661 -0.203896,0.701146 -0.203896,0.992187 0,0.291042 0.09175,0.737526 0.203896,0.992188 0.169495,0.384908 0.06636,0.463021 -0.61137,0.463021 -0.638244,0 -0.904388,0.172347 -1.225727,0.79375 -0.225756,0.436562 -0.463881,0.79375 -0.529167,0.79375 -0.06529,0 -0.303411,-0.357188 -0.529166,-0.79375 z" id="path498" sodipodi:nodetypes="ssscsssscsssscsssscssssscsssssssssssssssssssscssscccccsssssscsssssscsscsscssscssssssssscsscssssssssssssssssss" />
      <path style="display:none;fill:#a3a3a3;fill-opacity:1;stroke-width:0.264583" d="M 73.77232,87.658743 C 65.658052,79.544472 62.854694,76.58329 62.854694,76.126465 c 0,-0.393245 0.589875,-1.228942 1.637588,-2.320028 l 1.637591,-1.705377 -1.637591,-1.652278 c -0.900673,-0.908751 -1.637588,-1.887728 -1.637588,-2.175505 0,-0.68282 21.897996,-22.613575 22.579798,-22.613575 0.266612,0 1.248354,0.733248 2.181643,1.629439 l 1.696892,1.629438 1.696891,-1.629438 c 0.933289,-0.896191 1.916086,-1.629439 2.183993,-1.629439 0.681749,0 22.577449,21.933014 22.577449,22.615925 0,0.286483 -0.73692,1.264404 -1.63759,2.173155 l -1.63759,1.652278 1.63759,1.705377 c 1.04771,1.091086 1.63759,1.926783 1.63759,2.320028 0,0.91417 -21.570389,22.449904 -22.48603,22.449904 -0.443601,0 -1.179476,-0.524002 -2.311538,-1.646002 l -1.660765,-1.646002 -1.660766,1.646002 c -1.132062,1.122 -1.867937,1.646002 -2.311538,1.646002 -0.504409,0 -3.106279,-2.455503 -11.568403,-10.917626 z m 12.896741,2.517105 c 0.0011,-0.400182 0.170781,-2.989792 0.37723,-5.754687 0.206449,-2.764896 0.453276,-6.247474 0.548505,-7.739063 l 0.173141,-2.711979 h -1.051669 c -1.370594,0 -4.223334,0.889987 -6.458616,2.014934 -0.978633,0.492514 -1.841836,0.895483 -1.918229,0.895483 -0.07639,0 -0.138896,-2.083594 -0.138896,-4.630209 0,-2.546614 0.04305,-4.630208 0.09567,-4.630208 0.05262,0 1.103932,0.47249 2.336258,1.049978 3.677337,1.723257 7.098405,2.397686 7.08848,1.397418 -0.01286,-1.296861 -0.878358,-4.279567 -1.832789,-6.31627 -0.590169,-1.259386 -1.073034,-2.317485 -1.073034,-2.351332 0,-0.217803 5.197351,-0.405657 7.020822,-0.253763 l 2.210178,0.184107 -0.762487,1.358993 c -0.898022,1.600558 -1.988883,4.809031 -2.238692,6.584515 l -0.176829,1.256771 h 0.886666 c 1.425821,0 3.874945,-0.728581 6.248773,-1.858928 1.214522,-0.578319 2.256317,-1.051489 2.315107,-1.051489 0.0588,0 0.10688,2.083594 0.10688,4.630208 0,2.546615 -0.0436,4.630209 -0.0969,4.630209 -0.0533,0 -1.214134,-0.521171 -2.579686,-1.158161 C 95.094911,74.48435 93.359155,73.970119 91.8343,73.970119 h -0.948539 l 0.136639,1.653646 c 0.07515,0.909505 0.330054,4.630208 0.566452,8.268229 0.236394,3.638021 0.508936,6.701218 0.605644,6.807105 0.09671,0.105886 4.369461,-4.002352 9.495004,-9.129419 L 111.00869,72.24774 100.16086,61.402327 89.313027,50.556914 78.465195,61.402327 67.617363,72.24774 l 9.325081,9.327856 c 5.128794,5.130321 9.415004,9.327856 9.524915,9.327856 0.109908,0 0.200676,-0.327422 0.201702,-0.727604 z M 74.893235,74.59765 c -0.51331,-0.382056 -1.093464,-0.374073 -2.05052,0.02821 -0.381794,0.16048 -0.463021,0.05428 -0.463021,-0.605364 0,-0.567103 -0.211016,-0.953704 -0.724855,-1.328013 l -0.724858,-0.528021 0.724858,-0.330266 c 0.579448,-0.264015 0.724855,-0.507511 0.724855,-1.21384 0,-0.994523 0.152884,-1.064659 1.01084,-0.463722 0.547394,0.383408 0.655032,0.383408 1.24019,0 0.873487,-0.572333 0.92397,-0.546997 0.92397,0.463722 0,0.707078 0.145341,0.949847 0.727604,1.215353 l 0.727604,0.33178 -0.708501,0.570587 c -0.441193,0.355309 -0.740664,0.888045 -0.79375,1.412007 -0.08031,0.792726 -0.115874,0.818629 -0.614416,0.447567 z m 30.956245,0 c -0.51331,-0.382056 -1.09346,-0.374073 -2.05052,0.02821 -0.38179,0.16048 -0.46302,0.05428 -0.46302,-0.605364 0,-0.567103 -0.21101,-0.953704 -0.72485,-1.328013 l -0.72486,-0.528021 0.72486,-0.330266 c 0.57945,-0.264015 0.72485,-0.507511 0.72485,-1.21384 0,-0.994523 0.15289,-1.064659 1.01084,-0.463722 0.5474,0.383408 0.65503,0.383408 1.24019,0 0.87349,-0.572333 0.92397,-0.546997 0.92397,0.463722 0,0.707078 0.14534,0.949847 0.72761,1.215353 l 0.7276,0.33178 -0.7085,0.570587 c -0.44119,0.355309 -0.74066,0.888045 -0.79375,1.412007 -0.0803,0.792726 -0.11587,0.818629 -0.61442,0.447567 z M 88.956085,58.620638 c -0.349954,-0.592422 -0.661577,-0.790102 -1.245518,-0.790102 -0.867182,0 -0.937913,-0.164487 -0.384839,-0.89496 0.327115,-0.432038 0.325099,-0.598689 -0.01521,-1.256771 -0.388747,-0.751763 -0.385259,-0.758686 0.382236,-0.758686 0.580774,0 0.906605,-0.208548 1.302332,-0.833556 l 0.52777,-0.833556 0.431048,0.833556 c 0.336939,0.651569 0.602861,0.833556 1.218004,0.833556 0.878851,0 0.947391,0.162541 0.383093,0.908515 -0.340082,0.449569 -0.339061,0.584857 0.0084,1.11517 0.537967,0.821042 0.510386,0.886732 -0.372319,0.886732 -0.564216,0 -0.900396,0.209472 -1.268024,0.790102 L 89.4228,59.410741 Z" id="path496" sodipodi:nodetypes="ssscsssscsssscsssscssscsscsssssssssscsscssssssscsssscccccsscsssscsssssscssssssscsssssscssssssssscsssssscs" />
      <path style="display:none;fill:#8c8c8c;fill-opacity:1;stroke-width:0.264583" d="M 73.899868,87.528848 C 67.388292,81.015889 62.854694,76.282355 62.854694,75.996571 c 0,-0.266613 0.736915,-1.252175 1.637588,-2.190134 l 1.637591,-1.705377 -1.637591,-1.652278 c -0.904454,-0.912566 -1.637588,-1.887892 -1.637588,-2.178569 0,-0.679799 21.906899,-22.610511 22.58596,-22.610511 0.263226,0 1.242192,0.733248 2.175481,1.629439 l 1.696892,1.629438 1.696891,-1.629438 c 0.933289,-0.896191 1.912216,-1.629439 2.175394,-1.629439 0.619805,0 22.285938,21.617922 22.497508,22.447446 0.12886,0.505222 -0.15013,0.930169 -1.51434,2.306614 l -1.6723,1.687298 1.63759,1.705377 c 0.90067,0.937959 1.63759,1.924577 1.63759,2.192483 0,0.681749 -21.933014,22.577449 -22.615925,22.577449 -0.286483,0 -1.268224,-0.740701 -2.181643,-1.646002 l -1.660765,-1.646002 -1.660766,1.646002 c -0.913419,0.905301 -1.896216,1.646002 -2.183993,1.646002 -0.336544,0 -4.464071,-3.94168 -11.5684,-11.047521 z m 12.769193,2.911583 c 0.0011,-0.254661 0.172022,-2.725208 0.379992,-5.490104 0.207971,-2.764896 0.458269,-6.366536 0.556218,-8.003646 l 0.178091,-2.976562 h -1.031663 c -1.575734,0 -3.939649,0.704035 -6.254983,1.862897 -1.151083,0.576135 -2.138624,1.04752 -2.194536,1.04752 -0.05591,0 -0.101653,-2.083594 -0.101653,-4.630209 0,-2.546614 0.0625,-4.630208 0.138896,-4.630208 0.07639,0 0.939596,0.402968 1.918229,0.895482 2.223039,1.118786 5.086098,2.014935 6.437413,2.014935 0.903985,0 1.030462,-0.07599 1.030462,-0.619136 0,-1.219478 -1.038141,-4.645641 -1.965812,-6.487754 -0.519533,-1.031653 -0.944605,-1.938237 -0.944605,-2.01463 0,-0.07639 2.024062,-0.138897 4.497917,-0.138897 2.473854,0 4.497916,0.06293 4.497916,0.139837 0,0.07691 -0.340572,0.821051 -0.756825,1.653646 -1.004757,2.009722 -1.788977,4.372497 -2.017286,6.077871 l -0.185963,1.389063 h 0.978827 c 1.534956,0 3.994737,-0.735968 6.250556,-1.870171 1.13792,-0.572135 2.131118,-1.040246 2.207108,-1.040246 0.076,0 0.13817,2.093516 0.13817,4.652256 0,2.558743 -0.0893,4.611889 -0.19844,4.562546 -0.10914,-0.04934 -0.816709,-0.415006 -1.572375,-0.81259 -2.044568,-1.075725 -5.16968,-2.052212 -6.567821,-2.052212 h -1.233871 l 0.157615,2.182812 c 0.08669,1.200547 0.348988,4.980782 0.582893,8.400521 0.233902,3.41974 0.476179,6.272176 0.538387,6.338745 0.06221,0.06657 4.33514,-4.100994 9.495402,-9.261253 L 111.00961,72.248655 100.16132,61.402784 89.313027,50.556914 78.465195,61.402327 67.617363,72.24774 l 9.325081,9.327856 c 5.128794,5.130321 9.415004,9.327856 9.524915,9.327856 0.109908,0 0.200676,-0.208359 0.201702,-0.463021 z M 72.379694,73.880298 c 0,-0.704958 -0.145603,-0.949915 -0.72027,-1.211749 l -0.720267,-0.328176 0.720267,-0.437033 c 0.54791,-0.332455 0.72027,-0.64397 0.72027,-1.301795 0,-0.989386 0.05309,-1.015532 0.915191,-0.450665 0.574109,0.376171 0.706527,0.375549 1.445897,-0.0068 l 0.813912,-0.420889 v 0.888127 c 0,0.68334 0.157025,0.972164 0.680995,1.252585 l 0.680995,0.364456 -0.680995,0.49607 c -0.462555,0.336952 -0.680995,0.743606 -0.680995,1.267759 0,0.862298 -0.19204,0.94424 -0.936747,0.399698 -0.437063,-0.31959 -0.610037,-0.31959 -1.228053,0 -0.98167,0.50764 -1.0102,0.493191 -1.0102,-0.511588 z m 30.956246,0.02831 c 0,-0.735769 -0.1391,-0.975259 -0.72027,-1.240054 l -0.72026,-0.328176 0.72026,-0.437033 c 0.54791,-0.332455 0.72027,-0.64397 0.72027,-1.301795 0,-0.989386 0.0531,-1.015532 0.91519,-0.450665 0.57411,0.376171 0.70653,0.375549 1.4459,-0.0068 l 0.81391,-0.420889 v 0.888127 c 0,0.68334 0.15703,0.972164 0.681,1.252585 l 0.68099,0.364456 -0.68099,0.49607 c -0.47208,0.343887 -0.681,0.741503 -0.681,1.296067 0,0.664675 -0.0783,0.764836 -0.46302,0.592166 -0.25466,-0.1143 -0.76068,-0.207819 -1.12448,-0.207819 -0.3638,0 -0.86982,0.09352 -1.12448,0.207819 -0.3916,0.175768 -0.46302,0.06718 -0.46302,-0.704059 z M 88.985644,58.60025 c -0.336896,-0.587007 -0.634701,-0.769714 -1.254606,-0.769714 -0.802431,0 -0.808006,-0.0094 -0.434943,-0.73079 0.32767,-0.633649 0.327451,-0.827083 -0.0016,-1.455208 -0.374192,-0.714041 -0.368083,-0.724419 0.426458,-0.724419 0.60923,0 0.922182,-0.190897 1.281454,-0.781675 l 0.475364,-0.781674 0.461748,0.781674 c 0.346892,0.587244 0.657561,0.781675 1.248987,0.781675 0.774001,0 0.780859,0.01218 0.40768,0.724419 -0.329107,0.628125 -0.329327,0.821559 -0.0016,1.455208 0.372647,0.72062 0.366712,0.73079 -0.426527,0.73079 -0.604576,0 -0.920729,0.191232 -1.272524,0.769714 l -0.468093,0.769715 -0.441754,-0.769715 z" id="path494" sodipodi:nodetypes="ssscsssscsssscsssscssscsscsssssssssssssscssssssscsssscccccsscsscsssscsscssssssscsssscsscsssssscsscsscssscssccc" />
      <path style="display:inline;fill:#767676;fill-opacity:1;stroke-width:0.264583" d="M 73.899868,87.528848 C 67.825022,81.45271 62.854694,76.299818 62.854694,76.077975 c 0,-0.221843 0.770901,-1.1674 1.713111,-2.101236 l 1.713114,-1.697884 -1.713114,-1.774476 c -0.94221,-0.975961 -1.713111,-1.992826 -1.713111,-2.2597 0,-0.556081 21.899861,-22.584977 22.452684,-22.584977 0.194114,0 1.174795,0.79344 2.179291,1.7632 l 1.826358,1.7632 1.826357,-1.7632 c 1.004496,-0.96976 1.985177,-1.7632 2.179291,-1.7632 0.552823,0 22.452685,22.028896 22.452685,22.584977 0,0.266874 -0.7709,1.283739 -1.71311,2.2597 l -1.71312,1.774476 1.71312,1.697884 c 0.94221,0.933836 1.71311,1.880449 1.71311,2.103586 0,0.587459 -21.990151,22.496044 -22.579799,22.496044 -0.266612,0 -1.252175,-0.736915 -2.190133,-1.637588 l -1.705377,-1.637591 -1.652278,1.637591 c -0.908751,0.900673 -1.887728,1.637588 -2.175505,1.637588 -0.336544,0 -4.464071,-3.94168 -11.5684,-11.047521 z m 13.416547,-5.561354 c 0.225012,-3.241289 0.409112,-6.427618 0.409112,-7.080731 v -1.187482 l -1.12448,0.158456 c -1.851257,0.260871 -3.918703,0.901973 -5.995061,1.859032 -1.078092,0.496927 -2.030592,0.833413 -2.116666,0.747746 -0.229029,-0.227941 -0.36367,-6.364493 -0.168238,-7.667733 l 0.166957,-1.113348 1.377598,0.743783 c 2.004531,1.082273 5.25031,2.103319 6.686198,2.103319 h 1.246547 l -0.170807,-1.453314 c -0.186904,-1.590257 -1.430628,-5.230727 -2.277226,-6.665603 -0.294381,-0.49894 -0.535239,-0.959889 -0.535239,-1.024332 0,-0.06444 2.024062,-0.117168 4.497917,-0.117168 2.473854,0 4.497916,0.05067 4.497916,0.11261 0,0.06194 -0.470879,1.086327 -1.046398,2.276425 -1.031703,2.133435 -1.996353,5.591952 -1.818007,6.518031 0.07473,0.388024 0.308774,0.460012 1.279493,0.393549 1.458534,-0.09986 4.512394,-1.096989 6.62346,-2.162651 l 1.576039,-0.795581 v 4.637344 4.637341 L 98.628193,75.982066 C 96.717941,75.020078 93.90033,74.114767 91.990406,73.849313 l -1.159081,-0.161097 0.175516,2.985222 c 0.312407,5.313492 1.006494,14.094368 1.123924,14.218759 0.06285,0.06657 4.365696,-4.130397 9.561895,-9.326594 L 111.14029,72.117975 100.22666,61.204343 89.313027,50.290712 78.399853,61.203885 67.48668,72.117059 l 9.524111,9.528628 9.524111,9.528627 0.1862,-1.656786 c 0.10241,-0.91123 0.3703,-4.308748 0.595313,-7.550034 z M 72.644277,74.007343 c 0,-0.647597 -0.171482,-0.906063 -0.825542,-1.24429 l -0.825542,-0.426905 0.825542,-0.502042 c 0.572381,-0.348086 0.695209,-0.993562 0.695209,-1.454873 0,-0.743741 0.210493,-0.495183 0.939088,-0.105251 0.375025,0.200708 0.719378,0.164021 1.305523,-0.139086 l 0.796139,-0.411699 v 0.924385 c 0,0.739497 0.145454,1.000599 0.727225,1.30542 l 0.727226,0.381032 -0.727226,0.331345 c -0.581921,0.265142 -0.727225,0.507889 -0.727225,1.214919 0,1.009444 -0.05118,1.035595 -0.916784,0.468432 -0.578744,-0.379209 -0.692444,-0.376574 -1.313609,0.03043 -0.679714,0.445367 -0.680024,0.445198 -0.680024,-0.371817 z m 30.956253,0 c 0,-0.647597 -0.17149,-0.906063 -0.82555,-1.24429 l -0.82554,-0.426905 0.82554,-0.502042 c 0.57238,-0.348086 0.82555,-0.706078 0.82555,-1.167389 0,-0.466329 -0.23602,-1.037014 -0.0329,-1.017191 0.12082,0.01179 0.56991,0.479013 0.84166,0.624456 0.37502,0.200719 0.71938,0.164021 1.30552,-0.139086 l 0.79614,-0.411699 v 0.924385 c 0,0.739497 0.14546,1.000599 0.72723,1.30542 l 0.72722,0.381032 -0.72722,0.331345 c -0.58192,0.265142 -0.72723,0.507889 -0.72723,1.214919 0,1.009444 -0.0512,1.035595 -0.91678,0.468432 -0.57875,-0.379209 -0.69244,-0.376574 -1.31361,0.03043 -0.67971,0.445367 -0.68002,0.445198 -0.68002,-0.371817 z M 89.029234,58.555496 c -0.265662,-0.583066 -0.506179,-0.72496 -1.228844,-0.72496 h -0.89853 l 0.444725,-0.75286 c 0.417854,-0.707371 0.41692,-0.795297 -0.01548,-1.455208 l -0.46019,-0.702349 h 0.914003 c 0.739495,0 0.977056,-0.138393 1.244267,-0.724856 l 0.330266,-0.724856 0.528021,0.724856 c 0.37484,0.514571 0.760719,0.724856 1.330134,0.724856 0.794962,0 0.798246,0.0059 0.368319,0.662051 -0.394581,0.602206 -0.396716,0.733749 -0.02363,1.455209 l 0.410149,0.793157 h -0.932836 c -0.513059,0 -0.932836,0.09631 -0.932836,0.214013 0,0.117708 -0.168127,0.44394 -0.373613,0.724961 -0.360551,0.493082 -0.385165,0.485598 -0.70393,-0.214014 z" id="path492" sodipodi:nodetypes="sscsssscsssscsssscssssscsssscsscssssssssscccsscssscccccccsssscsssscsscssssssscssssscsscssssssscsscsscsssscssssssc" />
   </g>
   <g inkscape:label="Layer 1" inkscape:groupmode="layer" id="layer1" transform="translate(77.143014,-198.59663)" style="display:inline" />
   <path style="fill:#816f47;stroke-width:0.396634;fill-opacity:1" d="M 82.41083,197.5874 C 76.800387,192.75251 59.823023,176.14015 36.090086,152.26253 10.895589,126.91444 0.19831683,115.75738 0.19831683,114.82807 c 0,-0.88205 2.81382657,-4.15382 7.95074517,-9.24472 l 4.889789,-4.84599 -1.186181,-1.285264 C 11.200271,98.7452 8.8689358,96.256435 6.671926,93.921508 2.7532727,89.756854 0.19831683,86.412023 0.19831683,85.446549 0.19831683,84.723232 3.5999527,81.042452 19.04994,65.047921 35.002675,48.532924 74.016824,9.6564032 80.460249,3.8542432 l 4.306581,-3.87798168 1.145779,0.72545598 c 1.679907,1.0636407 7.6468,6.3459586 11.034456,9.7684845 l 2.94489,2.975198 5.384415,-5.0667196 c 7.07245,-6.6551478 9.41194,-8.48043933 10.27495,-8.01660887 1.55232,0.83430237 19.45471,18.32709447 43.10637,42.12009947 27.3063,27.469479 40.55123,41.28703 40.90113,42.669409 0.31373,1.239512 -1.46476,3.648812 -7.38885,10.009563 l -5.04454,5.416367 5.28625,5.42868 c 6.26417,6.43294 7.59496,8.24181 7.00627,9.52317 -1.65952,3.61221 -78.37422,80.13098 -84.09253,83.87776 -0.82046,0.53759 -1.04516,0.48362 -2.87504,-0.69061 -1.09175,-0.70058 -4.33473,-3.47486 -7.20662,-6.16507 l -5.22161,-4.89129 -4.596516,4.37175 c -4.901718,4.66201 -8.890111,7.87147 -9.781879,7.87147 -0.300006,0 -1.754822,-1.04218 -3.232925,-2.31597 z m 7.75627,-30.50547 c 1.096784,-10.82764 3.293543,-42.04629 3.880993,-55.15367 l 0.272059,-6.07026 -2.142155,0.25868 c -7.450446,0.89972 -15.363874,3.21994 -24.94859,7.31492 -3.163154,1.35143 -6.304667,2.54928 -6.981142,2.66191 l -1.229953,0.20476 -0.250248,-2.52126 c -0.586823,-5.91231 -0.748281,-19.732228 -0.288872,-24.726112 0.260557,-2.832282 0.54762,-5.223487 0.637926,-5.313789 0.09031,-0.09031 2.711074,1.108334 5.82393,2.663641 5.881562,2.938663 14.156039,5.912333 19.426043,6.981304 1.681453,0.34107 4.602806,0.620125 6.491897,0.620125 h 3.434709 L 94.009398,90.968316 C 93.307178,83.474558 89.168647,70.775125 84.831093,62.803895 l -1.760661,-3.235606 3.284388,-0.270877 c 3.870713,-0.319227 29.88147,-0.11134 30.23381,0.241641 0.13304,0.133276 -0.76183,2.364341 -1.9886,4.95792 -5.95174,12.582914 -9.83083,26.396169 -8.15498,29.039491 1.00034,1.577828 8.03626,0.619121 16.7097,-2.276848 5.70068,-1.903397 13.33998,-5.138131 16.53093,-6.999747 0.91144,-0.531739 1.75924,-0.966799 1.88401,-0.966799 0.12476,0 0.22685,7.752693 0.22685,17.22821 v 17.22821 l -6.04867,-2.92631 c -8.9692,-4.33925 -19.54291,-7.63938 -27.96267,-8.72736 -1.99633,-0.25796 -2.08231,-0.23068 -2.08192,0.66057 0.002,3.28881 2.54815,39.70172 3.78224,54.07856 0.69911,8.14449 0.96847,10.11416 1.38315,10.11416 0.3108,0 50.38138,-49.28194 64.54097,-63.52441 l 7.23696,-7.27932 -41.34817,-41.346755 -41.34817,-41.34675 -41.248422,41.249852 -41.24842,41.24985 35.893759,35.895403 c 19.741564,19.74247 35.995925,35.8954 36.120801,35.8954 0.124872,0 0.439478,-2.0972 0.699122,-4.66045 z" id="path2690" transform="scale(0.26458333)" />
   <path style="fill:#816f47;fill-opacity:1;stroke-width:0.396634" d="m 162.11349,108.65493 c -2.49641,-1.42575 -3.60643,-1.46031 -5.64151,-0.17562 -0.86392,0.54537 -1.73135,0.99158 -1.92761,0.99158 -0.19627,0 -0.43481,-1.07784 -0.5301,-2.39521 -0.19936,-2.75606 -0.63671,-3.33495 -3.83862,-5.08087 l -2.13168,-1.16234 2.1651,-1.384996 c 1.1908,-0.761746 2.57021,-1.896969 3.06537,-2.522718 0.79686,-1.007026 0.8715,-1.422502 0.64965,-3.616686 -0.13785,-1.363428 -0.15797,-2.47896 -0.0447,-2.47896 0.11327,0 1.02433,0.624698 2.0246,1.388218 2.21689,1.692194 3.21647,1.729593 6.36877,0.238291 l 2.42939,-1.149301 0.18902,2.945399 c 0.21427,3.338751 0.82897,4.306278 3.5016,5.511467 0.86062,0.388086 1.56477,0.826476 1.56477,0.974206 0,0.14773 -0.9196,0.69931 -2.04356,1.22575 -2.37337,1.11162 -3.11268,2.41521 -3.11268,5.48844 0,1.08487 -0.14492,2.06206 -0.32205,2.17153 -0.17712,0.10947 -1.24171,-0.32621 -2.36575,-0.96818 z" id="path3692" transform="scale(0.26458333)" />
   <path style="fill:#816f47;fill-opacity:1;stroke-width:0.396634" d="m 45.106558,108.65493 c -2.496409,-1.42575 -3.60643,-1.46031 -5.641508,-0.17562 -0.863924,0.54537 -1.731351,0.99158 -1.927615,0.99158 -0.196264,0 -0.433823,-1.06422 -0.527908,-2.36494 -0.203136,-2.80832 -0.804769,-3.60959 -3.877847,-5.16462 l -2.168717,-1.0974 1.9704,-1.213423 c 2.275316,-1.401199 3.228709,-2.805967 3.575253,-5.267921 0.407732,-2.896658 0.359814,-2.863442 2.53834,-1.7595 2.517549,1.275739 3.247066,1.25844 6.218866,-0.147467 l 2.429386,-1.149301 0.189024,2.945399 c 0.214268,3.338751 0.828966,4.306278 3.501598,5.511467 0.860621,0.388086 1.564765,0.826476 1.564765,0.974206 0,0.14773 -0.919599,0.69931 -2.043553,1.22575 -2.373377,1.11162 -3.112685,2.41521 -3.112685,5.48844 0,1.08487 -0.14492,2.06206 -0.322045,2.17153 -0.177125,0.10947 -1.241714,-0.32621 -2.365754,-0.96818 z" id="path3731" transform="scale(0.26458333)" />
   <path style="fill:#816f47;fill-opacity:1;stroke-width:0.396634" d="m 99.466971,49.548137 c -0.387853,-0.728127 -1.182293,-1.822189 -1.76542,-2.431249 -0.964454,-1.007344 -1.313127,-1.107383 -3.859674,-1.107383 h -2.799441 l 1.380713,-2.511899 c 0.759392,-1.381544 1.380713,-2.856429 1.380713,-3.277522 0,-0.421093 -0.61458,-1.678222 -1.365734,-2.793622 l -1.365734,-2.027998 2.840915,-0.279937 c 1.562503,-0.153965 3.145374,-0.442878 3.51749,-0.642028 0.372117,-0.199151 1.146993,-1.356474 1.721949,-2.57183 l 1.045372,-2.209737 1.1068,1.527893 c 1.93423,2.670127 3.32023,3.570034 5.9725,3.877864 l 2.40459,0.279082 -1.1963,2.09092 c -0.65797,1.150006 -1.19616,2.336922 -1.19599,2.63759 1.7e-4,0.300669 0.53563,1.678228 1.1899,3.061243 0.65427,1.383016 1.18959,2.587791 1.18959,2.677278 0,0.08949 -1.29402,0.165437 -2.8756,0.168777 -1.58157,0.0033 -3.05407,0.137204 -3.27222,0.297475 -0.21815,0.160271 -0.73475,0.956376 -1.148,1.769123 -0.41326,0.812747 -1.07759,1.772945 -1.4763,2.133774 -0.68384,0.618865 -0.7649,0.581011 -1.430119,-0.667814 z" id="path3770" transform="scale(0.26458333)" />
</svg>