<svg width="88.852562mm" height="36.961937mm" viewBox="0 0 88.852562 36.961937" version="1.1" id="svg5" inkscape:version="1.1.1 (1:1.1+202109281949+c3084ef5ed)" sodipodi:docname="lasalle.svg" xmlns:inkscape="http://www.inkscape.org/namespaces/inkscape" xmlns:sodipodi="http://sodipodi.sourceforge.net/DTD/sodipodi-0.dtd" xmlns="http://www.w3.org/2000/svg" xmlns:svg="http://www.w3.org/2000/svg">
   <sodipodi:namedview id="namedview7" pagecolor="#505050" bordercolor="#eeeeee" borderopacity="1" inkscape:pageshadow="0" inkscape:pageopacity="0" inkscape:pagecheckerboard="true" inkscape:document-units="mm" showgrid="false" fit-margin-top="0" fit-margin-left="0" fit-margin-right="0" fit-margin-bottom="0" inkscape:zoom="3.2614375" inkscape:cx="152.5401" inkscape:cy="64.542092" inkscape:window-width="1920" inkscape:window-height="1016" inkscape:window-x="0" inkscape:window-y="27" inkscape:window-maximized="1" inkscape:current-layer="svg5" />
   <defs id="defs2" />
   <g id="g870" transform="translate(-18.533128,-117.04706)" style="display:inline">
      <path style="display:none;fill:#fcfdfd;stroke-width:0.264583" d="m 18.221109,135.48817 v -19.84375 h 44.979168 44.979173 v 19.84375 19.84375 H 63.200277 18.221109 Z" id="path886" />
      <path style="display:none;fill:#fdeaa3;stroke-width:0.264583" d="m 36.212776,154.6902 c 0,-0.20743 1.369219,-4.39637 3.042709,-9.30876 1.673489,-4.91239 3.037119,-9.17776 3.030288,-9.47859 -0.0091,-0.39936 -1.490714,-1.63659 -5.490104,-4.58445 -7.116961,-5.24576 -7.126146,-5.25334 -6.787752,-5.59969 0.197029,-0.20165 2.519469,0.16561 8.013561,1.26725 7.149233,1.43352 7.754671,1.51656 7.980527,1.09454 0.134419,-0.25116 0.861907,-2.94367 1.616639,-5.98335 1.356812,-5.46454 1.696569,-6.42071 2.128144,-5.98914 0.121791,0.1218 0.917742,2.95458 1.768782,6.29507 l 1.547342,6.07363 6.303666,0.13229 c 4.544878,0.0954 6.332937,0.22033 6.408576,0.44781 0.0577,0.17353 -1.897025,1.6471 -4.343839,3.2746 -2.446811,1.62749 -4.550778,3.05201 -4.675484,3.1656 -0.124709,0.11358 1.155213,2.8804 2.844271,6.14848 2.991948,5.789 3.329824,6.61608 2.829195,6.92548 -0.132998,0.0822 -2.994231,-1.22046 -6.358298,-2.8948 -3.364063,-1.67434 -6.258367,-3.04425 -6.431788,-3.04425 -0.173418,0 -3.122173,2.79797 -6.552789,6.21771 -3.430615,3.41974 -6.380619,6.21771 -6.555564,6.21771 -0.174945,0 -0.318082,-0.16972 -0.318082,-0.37714 z m 30.861676,-1.48261 c -1.092182,-0.32701 -1.721512,-0.99274 -2.033405,-2.15102 -0.353658,-1.31338 0.03663,-2.81596 0.955699,-3.67938 0.968682,-0.91003 2.961873,-0.91145 3.929091,-0.003 1.371196,1.28818 0.511585,2.443 -0.92112,1.23746 -1.008335,-0.84846 -1.167265,-0.85158 -1.980007,-0.0388 -1.196451,1.19645 -0.592868,3.31932 0.943761,3.31932 0.528659,0 0.867542,-0.18629 1.08294,-0.59532 0.38115,-0.72377 0.793482,-1.02396 1.201742,-0.87491 0.168299,0.0615 0.454454,-0.24668 0.6359,-0.68473 0.181446,-0.43805 0.595318,-0.97036 0.919716,-1.18291 0.324395,-0.21255 0.658426,-0.72954 0.742288,-1.14885 0.09287,-0.46432 0.374028,-0.83271 0.719151,-0.94225 0.837099,-0.26568 1.174461,0.21921 0.678815,0.97566 -0.396611,0.6053 -0.375849,0.66001 0.522586,1.37689 0.912813,0.72835 0.939144,0.73302 1.080704,0.19169 0.111551,-0.42657 0.367366,-0.5621 1.106427,-0.58619 0.52873,-0.0172 1.080392,7.9e-4 1.225912,0.0403 0.288486,0.0781 0.53004,0.0667 2.112913,-0.0997 0.84624,-0.0889 1.083812,-0.23467 1.202552,-0.73766 0.09329,-0.39517 0.339143,-0.62684 0.665213,-0.62684 0.438555,0 0.529526,0.21479 0.598006,1.41193 l 0.08076,1.41192 0.62429,-0.67362 c 1.18991,-1.28393 3.11526,-1.13767 3.875161,0.29439 0.354553,0.66816 0.370274,0.64048 0.498393,-0.87735 0.112578,-1.33372 0.20937,-1.56727 0.649531,-1.56727 0.332185,0 0.575125,0.23666 0.67904,0.66146 0.110443,0.4515 0.313296,0.63446 0.63908,0.57641 0.941322,-0.16776 2.055254,0.54656 2.576809,1.65239 0.443137,0.93957 0.490003,0.97625 0.363821,0.28474 -0.166664,-0.91333 0.0038,-1.24566 0.874268,-1.7044 0.787992,-0.41527 2.333966,-0.14695 2.644693,0.45902 0.127375,0.2484 0.308247,1.31484 0.401939,2.36986 l 0.170347,1.91823 h -1.812923 c -1.481558,0 -1.901134,-0.0975 -2.295528,-0.53327 l -0.482605,-0.53327 -0.582776,0.54749 c -0.478928,0.44993 -0.859923,0.53317 -2.13809,0.46712 -1.476701,-0.0763 -1.559542,-0.11711 -1.638983,-0.80744 l -0.08367,-0.72708 -0.667454,0.79323 c -0.906775,1.07764 -2.592449,1.13063 -3.549783,0.11159 l -0.640357,-0.68162 -0.144307,0.61548 c -0.128495,0.54805 -0.318084,0.62395 -1.730412,0.69278 -1.405874,0.0685 -1.657257,0.002 -2.212266,-0.58921 -0.379571,-0.40404 -0.656198,-1.05965 -0.702442,-1.6648 -0.04196,-0.54906 -0.08331,-1.04263 -0.0919,-1.09683 -0.0086,-0.0542 -0.194209,0.0497 -0.41249,0.23083 -0.225224,0.18692 -0.396875,0.76375 -0.396875,1.33368 0,0.55236 -0.07227,1.19263 -0.1606,1.42281 -0.236889,0.61732 -0.868013,0.50864 -1.1934,-0.20551 l -0.284324,-0.62402 -0.62402,0.62402 c -0.811207,0.81121 -2.419056,0.85311 -3.244017,0.0846 -0.318481,-0.2967 -0.579056,-0.66648 -0.579056,-0.82172 0,-0.15524 -0.345424,0.0875 -0.767612,0.53947 -0.422188,0.45195 -0.94823,0.82173 -1.168985,0.82173 -0.220755,0 -0.55994,0.0492 -0.753742,0.10935 -0.193805,0.0601 -0.692584,0.007 -1.108403,-0.11701 z m 6.75681,-1.97564 c 0.247965,-0.54422 0.217842,-0.75215 -0.171265,-1.18211 -0.364003,-0.40222 -0.585745,-0.46094 -0.968023,-0.25635 -0.484939,0.25953 -0.698328,1.54361 -0.319474,1.92246 0.394992,0.39499 1.176396,0.13573 1.458762,-0.484 z m 7.086791,0.14861 c 0.372033,-0.69515 0.34567,-0.96615 -0.141359,-1.45318 -0.835448,-0.83544 -1.760239,0.28514 -1.276234,1.54644 0.222951,0.581 1.087165,0.52415 1.417593,-0.0933 z m 4.718891,0.19428 c 0.43605,-0.43605 0.397995,-1.15171 -0.08703,-1.63674 -0.766188,-0.76619 -1.692269,0.23721 -1.315259,1.42507 0.186986,0.58914 0.914939,0.69902 1.402291,0.21167 z m 4.919401,-0.10102 c 0.296847,-0.77357 0.164211,-1.41302 -0.350192,-1.68832 -0.942538,-0.50443 -1.806887,1.00624 -1.023792,1.78934 0.448233,0.44823 1.183976,0.39414 1.373984,-0.10102 z m 4.12935,0.15393 c 0,-0.14552 -0.171567,-0.26458 -0.38126,-0.26458 -0.209693,0 -0.454845,0.11906 -0.544782,0.26458 -0.08994,0.14552 0.08163,0.26459 0.381259,0.26459 0.29963,0 0.544783,-0.11907 0.544783,-0.26459 z m -0.125151,-1.84053 c -0.08601,-0.13916 -0.33116,-0.18595 -0.544782,-0.10398 -0.546923,0.20988 -0.482473,0.35701 0.156382,0.35701 0.29963,0 0.474411,-0.11386 0.3884,-0.25303 z m -65.64533,-4.00016 c -0.448398,-0.1302 -1.032613,-0.47689 -1.298255,-0.77042 l -0.482986,-0.53369 -0.297058,0.59584 c -0.288315,0.5783 -0.413646,0.59584 -4.257995,0.59584 h -3.960936 v -7.80521 -7.80521 l 1.543678,-0.08 c 0.910458,-0.0472 1.69732,0.0475 1.918229,0.23083 0.302127,0.25074 0.374551,1.43012 0.374551,6.09929 v 5.78843 h 1.944241 1.94424 l 0.411052,-1.04643 c 0.470284,-1.19723 1.629352,-2.02258 3.152776,-2.24503 0.557897,-0.0815 1.479627,-0.21626 2.048288,-0.29955 1.32556,-0.19413 1.958326,-0.65035 1.729412,-1.2469 -0.399992,-1.04236 -2.615864,-0.8761 -3.035552,0.22776 -0.238639,0.62767 -0.350495,0.66213 -1.908871,0.58793 -1.545829,-0.0736 -1.660115,-0.12259 -1.726972,-0.74028 -0.108009,-0.99788 0.806523,-2.24152 2.113652,-2.8743 1.564432,-0.75732 4.860383,-0.78334 6.473209,-0.0511 1.706445,0.77475 1.882958,1.35054 1.96022,6.39434 0.03683,2.40416 -0.02016,4.51216 -0.126649,4.68446 -0.238714,0.38624 -2.391753,0.41316 -3.091542,0.0386 -0.373913,-0.20011 -0.838285,-0.16422 -1.711644,0.1323 -1.316877,0.44709 -2.466546,0.48498 -3.715088,0.12246 z m 4.235558,-3.04135 c 0.447492,-0.44749 0.832969,-1.63727 0.604487,-1.86575 -0.295297,-0.2953 -2.664347,0.25924 -3.140138,0.73503 -0.393515,0.39352 -0.440316,0.6112 -0.219933,1.02299 0.351096,0.65603 2.137446,0.72587 2.755584,0.10773 z m 34.516275,2.97616 c -2.294954,-0.85761 -3.30114,-1.80329 -3.916635,-3.68111 -0.556316,-1.69727 -0.257334,-2.05467 1.718794,-2.05467 h 1.704105 l 0.409085,1.0224 c 0.482058,1.20478 1.250487,1.62343 2.979793,1.62343 2.038538,0 3.09186,-1.17238 1.964651,-2.18673 -0.254662,-0.22916 -1.584992,-0.73148 -2.956288,-1.11627 -3.001068,-0.84209 -3.716647,-1.1917 -4.608438,-2.25154 -1.438611,-1.70969 -1.251331,-4.06104 0.453792,-5.69749 1.290002,-1.23805 2.636422,-1.71255 4.859406,-1.71255 3.467616,0 6.154132,2.0052 6.154132,4.5934 0,0.77197 -0.423246,0.96285 -2.134986,0.96285 -1.221621,0 -1.336376,-0.0609 -1.951183,-1.03478 -0.716458,-1.13494 -1.684005,-1.51587 -3.074528,-1.21046 -1.012042,0.22228 -1.596559,1.27674 -1.022165,1.84397 0.207709,0.20512 1.66505,0.72173 3.238535,1.14803 3.314129,0.89788 4.585055,1.74092 5.226897,3.46713 0.369652,0.99417 0.454049,1.06854 0.77448,0.68245 0.593077,-0.71462 1.68487,-1.15544 3.606083,-1.456 2.554904,-0.39969 2.745201,-0.48155 2.745201,-1.18091 0,-1.20566 -1.847348,-1.29785 -2.860916,-0.14277 -0.622996,0.70998 -0.85783,0.79375 -2.225085,0.79375 -1.491396,0 -1.528559,-0.0177 -1.527593,-0.7276 0.0016,-1.13471 0.944409,-2.42193 2.187289,-2.98614 1.528397,-0.69381 4.922049,-0.7034 6.430751,-0.0182 1.689759,0.76746 1.920666,1.52987 1.982986,6.54739 0.02912,2.34461 -0.02973,4.39669 -0.130773,4.56018 -0.229918,0.37202 -2.394911,0.39019 -3.075742,0.0258 -0.368794,-0.19738 -0.872701,-0.15191 -1.846556,0.16662 -1.515922,0.49584 -3.395932,0.36286 -4.427691,-0.31317 -0.348104,-0.22809 -0.878509,-0.83096 -1.178682,-1.33971 L 76.62,143.12421 l -0.719611,0.78788 c -1.232054,1.34892 -2.788148,1.9753 -5.159487,2.07684 -1.344118,0.0576 -2.466025,-0.0399 -3.073855,-0.26705 z m 15.558866,-2.76866 c 0.318444,-0.20248 0.876448,-1.44784 0.876448,-1.95606 0,-0.30917 -2.214335,-0.0606 -2.945434,0.33062 -0.599517,0.32082 -0.826419,1.03608 -0.466318,1.46998 0.320633,0.38634 2.009354,0.48989 2.535304,0.15546 z m 17.208767,2.76723 c -1.448043,-0.45042 -2.817831,-1.65952 -3.464586,-3.05815 l -0.564608,-1.221 -0.07892,1.97666 c -0.04669,1.16948 -0.208754,2.05918 -0.396875,2.17876 -0.544102,0.34585 -2.745026,0.23633 -3.067865,-0.15266 -0.213331,-0.25705 -0.280649,-2.55256 -0.230833,-7.87136 l 0.07032,-7.50848 h 1.719791 1.719792 l 0.132292,4.10104 0.132291,4.10104 0.493226,-0.92604 c 1.233908,-2.31668 3.016367,-3.43958 5.459895,-3.43958 3.04564,0 5.06335,1.76103 5.39704,4.71048 0.28317,2.50287 0.39294,2.43327 -3.83785,2.43327 -2.02172,0 -3.67586,0.0674 -3.67586,0.14969 0,0.2883 0.61114,1.30735 0.89951,1.49991 0.6676,0.44577 2.3338,0.20046 3.1175,-0.45898 0.58105,-0.48891 1.09354,-0.66145 1.96472,-0.66145 1.41371,0 1.6925,0.44169 1.08409,1.71754 -1.03961,2.18009 -4.14528,3.2778 -6.87308,2.42931 z m 3.61896,-7.54637 c 0.25586,-0.41399 -0.90665,-1.36298 -1.66965,-1.36298 -0.81874,0 -2.23721,0.95488 -1.99666,1.3441 0.18911,0.30598 3.4784,0.32292 3.66631,0.0189 z m -15.425144,7.26998 c -0.213331,-0.25705 -0.280649,-2.55256 -0.230834,-7.87136 l 0.07032,-7.50848 h 1.719792 1.719792 l 0.07028,7.65475 c 0.05461,5.94771 -0.0044,7.70214 -0.264584,7.8673 -0.557903,0.35413 -2.756979,0.25275 -3.084771,-0.14221 z" id="path884" />
      <path style="display:none;fill:#b1c7df;stroke-width:0.264583" d="m 37.006526,153.76203 c 0,-0.13584 1.309688,-4.14311 2.910417,-8.90505 1.600729,-4.76195 2.910417,-8.86682 2.910417,-9.12195 0,-0.29782 -2.151924,-2.05809 -6.011393,-4.91732 -3.530851,-2.61578 -5.835411,-4.48734 -5.584913,-4.53558 0.234564,-0.0452 3.547901,0.52567 7.362972,1.26854 3.815071,0.74287 7.120689,1.31467 7.345815,1.27065 0.296471,-0.058 0.799682,-1.61189 1.825197,-5.63627 1.683948,-6.60826 1.65603,-6.52554 1.964518,-5.82084 0.127405,0.29104 0.837232,2.9679 1.577396,5.94856 0.740161,2.98067 1.486529,5.50892 1.658598,5.61835 0.17207,0.10942 2.96902,0.20077 6.215447,0.203 3.727902,0.003 5.8444,0.0982 5.744641,0.25962 -0.08687,0.14057 -2.058432,1.50585 -4.381241,3.03396 -2.427097,1.59672 -4.223287,2.95188 -4.223287,3.18631 0,0.22436 1.316652,3.03915 2.92589,6.25508 1.609241,3.21594 2.8536,5.91945 2.765242,6.00781 -0.08835,0.0884 -2.834441,-1.17468 -6.102413,-2.80675 -3.267972,-1.63207 -6.090902,-2.9674 -6.273179,-2.9674 -0.182274,0 -3.008331,2.67891 -6.280124,5.95313 -3.271793,3.27422 -6.039004,5.95312 -6.149357,5.95312 -0.110354,0 -0.200643,-0.11113 -0.200643,-0.24697 z m 30.067926,-0.55444 c -1.092182,-0.32701 -1.721512,-0.99274 -2.033405,-2.15102 -0.353658,-1.31338 0.03663,-2.81596 0.955699,-3.67938 0.968682,-0.91003 2.961873,-0.91145 3.929091,-0.003 1.371196,1.28818 0.511585,2.443 -0.92112,1.23746 -1.008335,-0.84846 -1.167265,-0.85158 -1.980007,-0.0388 -1.196451,1.19645 -0.592868,3.31932 0.943761,3.31932 0.528659,0 0.867542,-0.18629 1.08294,-0.59532 0.38115,-0.72377 0.793482,-1.02396 1.201742,-0.87491 0.168299,0.0615 0.454454,-0.24668 0.6359,-0.68473 0.181446,-0.43805 0.595318,-0.97036 0.919716,-1.18291 0.324395,-0.21255 0.658426,-0.72954 0.742288,-1.14885 0.09287,-0.46432 0.374028,-0.83271 0.719151,-0.94225 0.837099,-0.26568 1.174461,0.21921 0.678815,0.97566 -0.396611,0.6053 -0.375849,0.66001 0.522586,1.37689 0.912813,0.72835 0.939144,0.73302 1.080704,0.19169 0.111551,-0.42657 0.367366,-0.5621 1.106427,-0.58619 0.52873,-0.0172 1.080392,7.9e-4 1.225912,0.0403 0.288486,0.0781 0.53004,0.0667 2.112913,-0.0997 0.84624,-0.0889 1.083812,-0.23467 1.202552,-0.73766 0.09329,-0.39517 0.339143,-0.62684 0.665213,-0.62684 0.438555,0 0.529526,0.21479 0.598006,1.41193 l 0.08076,1.41192 0.62429,-0.67362 c 1.18991,-1.28393 3.11526,-1.13767 3.875161,0.29439 0.354553,0.66816 0.370274,0.64048 0.498393,-0.87735 0.112578,-1.33372 0.20937,-1.56727 0.649531,-1.56727 0.332185,0 0.575125,0.23666 0.67904,0.66146 0.110443,0.4515 0.313296,0.63446 0.63908,0.57641 0.941322,-0.16776 2.055254,0.54656 2.576809,1.65239 0.443137,0.93957 0.490003,0.97625 0.363821,0.28474 -0.166664,-0.91333 0.0038,-1.24566 0.874268,-1.7044 0.787992,-0.41527 2.333966,-0.14695 2.644693,0.45902 0.127375,0.2484 0.308247,1.31484 0.401939,2.36986 l 0.170347,1.91823 h -1.812923 c -1.481558,0 -1.901134,-0.0975 -2.295528,-0.53327 l -0.482605,-0.53327 -0.582776,0.54749 c -0.478928,0.44993 -0.859923,0.53317 -2.13809,0.46712 -1.476701,-0.0763 -1.559542,-0.11711 -1.638983,-0.80744 l -0.08367,-0.72708 -0.667454,0.79323 c -0.906775,1.07764 -2.592449,1.13063 -3.549783,0.11159 l -0.640357,-0.68162 -0.144307,0.61548 c -0.128495,0.54805 -0.318084,0.62395 -1.730412,0.69278 -1.405874,0.0685 -1.657257,0.002 -2.212266,-0.58921 -0.379571,-0.40404 -0.656198,-1.05965 -0.702442,-1.6648 -0.04196,-0.54906 -0.08331,-1.04263 -0.0919,-1.09683 -0.0086,-0.0542 -0.194209,0.0497 -0.41249,0.23083 -0.225224,0.18692 -0.396875,0.76375 -0.396875,1.33368 0,0.55236 -0.07227,1.19263 -0.1606,1.42281 -0.236889,0.61732 -0.868013,0.50864 -1.1934,-0.20551 l -0.284324,-0.62402 -0.62402,0.62402 c -0.811207,0.81121 -2.419056,0.85311 -3.244017,0.0846 -0.318481,-0.2967 -0.579056,-0.66648 -0.579056,-0.82172 0,-0.15524 -0.345424,0.0875 -0.767612,0.53947 -0.422188,0.45195 -0.94823,0.82173 -1.168985,0.82173 -0.220755,0 -0.55994,0.0492 -0.753742,0.10935 -0.193805,0.0601 -0.692584,0.007 -1.108403,-0.11701 z m 6.75681,-1.97564 c 0.247965,-0.54422 0.217842,-0.75215 -0.171265,-1.18211 -0.364003,-0.40222 -0.585745,-0.46094 -0.968023,-0.25635 -0.484939,0.25953 -0.698328,1.54361 -0.319474,1.92246 0.394992,0.39499 1.176396,0.13573 1.458762,-0.484 z m 7.086791,0.14861 c 0.372033,-0.69515 0.34567,-0.96615 -0.141359,-1.45318 -0.835448,-0.83544 -1.760239,0.28514 -1.276234,1.54644 0.222951,0.581 1.087165,0.52415 1.417593,-0.0933 z m 4.718891,0.19428 c 0.43605,-0.43605 0.397995,-1.15171 -0.08703,-1.63674 -0.766188,-0.76619 -1.692269,0.23721 -1.315259,1.42507 0.186986,0.58914 0.914939,0.69902 1.402291,0.21167 z m 4.919401,-0.10102 c 0.296847,-0.77357 0.164211,-1.41302 -0.350192,-1.68832 -0.942538,-0.50443 -1.806887,1.00624 -1.023792,1.78934 0.448233,0.44823 1.183976,0.39414 1.373984,-0.10102 z m 4.12935,0.15393 c 0,-0.14552 -0.171567,-0.26458 -0.38126,-0.26458 -0.209693,0 -0.454845,0.11906 -0.544782,0.26458 -0.08994,0.14552 0.08163,0.26459 0.381259,0.26459 0.29963,0 0.544783,-0.11907 0.544783,-0.26459 z m -0.125151,-1.84053 c -0.08601,-0.13916 -0.33116,-0.18595 -0.544782,-0.10398 -0.546923,0.20988 -0.482473,0.35701 0.156382,0.35701 0.29963,0 0.474411,-0.11386 0.3884,-0.25303 z m -65.64533,-4.00016 c -0.448398,-0.1302 -1.032613,-0.47689 -1.298255,-0.77042 l -0.482986,-0.53369 -0.297058,0.59584 c -0.288315,0.5783 -0.413646,0.59584 -4.257995,0.59584 h -3.960936 v -7.80521 -7.80521 l 1.543678,-0.08 c 0.910458,-0.0472 1.69732,0.0475 1.918229,0.23083 0.302127,0.25074 0.374551,1.43012 0.374551,6.09929 v 5.78843 h 1.944241 1.94424 l 0.411052,-1.04643 c 0.470284,-1.19723 1.629352,-2.02258 3.152776,-2.24503 0.557897,-0.0815 1.479627,-0.21626 2.048288,-0.29955 1.32556,-0.19413 1.958326,-0.65035 1.729412,-1.2469 -0.399992,-1.04236 -2.615864,-0.8761 -3.035552,0.22776 -0.238639,0.62767 -0.350495,0.66213 -1.908871,0.58793 -1.545829,-0.0736 -1.660115,-0.12259 -1.726972,-0.74028 -0.108009,-0.99788 0.806523,-2.24152 2.113652,-2.8743 1.564432,-0.75732 4.860383,-0.78334 6.473209,-0.0511 1.706445,0.77475 1.882958,1.35054 1.96022,6.39434 0.03683,2.40416 -0.02016,4.51216 -0.126649,4.68446 -0.238714,0.38624 -2.391753,0.41316 -3.091542,0.0386 -0.373913,-0.20011 -0.838285,-0.16422 -1.711644,0.1323 -1.316877,0.44709 -2.466546,0.48498 -3.715088,0.12246 z m 4.235558,-3.04135 c 0.447492,-0.44749 0.832969,-1.63727 0.604487,-1.86575 -0.295297,-0.2953 -2.664347,0.25924 -3.140138,0.73503 -0.393515,0.39352 -0.440316,0.6112 -0.219933,1.02299 0.351096,0.65603 2.137446,0.72587 2.755584,0.10773 z m 34.516275,2.97616 c -2.294954,-0.85761 -3.30114,-1.80329 -3.916635,-3.68111 -0.556316,-1.69727 -0.257334,-2.05467 1.718794,-2.05467 h 1.704105 l 0.409085,1.0224 c 0.482058,1.20478 1.250487,1.62343 2.979793,1.62343 2.038538,0 3.09186,-1.17238 1.964651,-2.18673 -0.254662,-0.22916 -1.584992,-0.73148 -2.956288,-1.11627 -3.001068,-0.84209 -3.716647,-1.1917 -4.608438,-2.25154 -1.438611,-1.70969 -1.251331,-4.06104 0.453792,-5.69749 1.290002,-1.23805 2.636422,-1.71255 4.859406,-1.71255 3.467616,0 6.154132,2.0052 6.154132,4.5934 0,0.77197 -0.423246,0.96285 -2.134986,0.96285 -1.221621,0 -1.336376,-0.0609 -1.951183,-1.03478 -0.716458,-1.13494 -1.684005,-1.51587 -3.074528,-1.21046 -1.012042,0.22228 -1.596559,1.27674 -1.022165,1.84397 0.207709,0.20512 1.66505,0.72173 3.238535,1.14803 3.314129,0.89788 4.585055,1.74092 5.226897,3.46713 0.369652,0.99417 0.454049,1.06854 0.77448,0.68245 0.593077,-0.71462 1.68487,-1.15544 3.606083,-1.456 2.554904,-0.39969 2.745201,-0.48155 2.745201,-1.18091 0,-1.20566 -1.847348,-1.29785 -2.860916,-0.14277 -0.622996,0.70998 -0.85783,0.79375 -2.225085,0.79375 -1.491396,0 -1.528559,-0.0177 -1.527593,-0.7276 0.0016,-1.13471 0.944409,-2.42193 2.187289,-2.98614 1.528397,-0.69381 4.922049,-0.7034 6.430751,-0.0182 1.689759,0.76746 1.920666,1.52987 1.982986,6.54739 0.02912,2.34461 -0.02973,4.39669 -0.130773,4.56018 -0.229918,0.37202 -2.394911,0.39019 -3.075742,0.0258 -0.368794,-0.19738 -0.872701,-0.15191 -1.846556,0.16662 -1.515922,0.49584 -3.395932,0.36286 -4.427691,-0.31317 -0.348104,-0.22809 -0.878509,-0.83096 -1.178682,-1.33971 L 76.62,143.12421 l -0.719611,0.78788 c -1.232054,1.34892 -2.788148,1.9753 -5.159487,2.07684 -1.344118,0.0576 -2.466025,-0.0399 -3.073855,-0.26705 z m 15.558866,-2.76866 c 0.318444,-0.20248 0.876448,-1.44784 0.876448,-1.95606 0,-0.30917 -2.214335,-0.0606 -2.945434,0.33062 -0.599517,0.32082 -0.826419,1.03608 -0.466318,1.46998 0.320633,0.38634 2.009354,0.48989 2.535304,0.15546 z m 17.208767,2.76723 c -1.448043,-0.45042 -2.817831,-1.65952 -3.464586,-3.05815 l -0.564608,-1.221 -0.07892,1.97666 c -0.04669,1.16948 -0.208754,2.05918 -0.396875,2.17876 -0.544102,0.34585 -2.745026,0.23633 -3.067865,-0.15266 -0.213331,-0.25705 -0.280649,-2.55256 -0.230833,-7.87136 l 0.07032,-7.50848 h 1.719791 1.719792 l 0.132292,4.10104 0.132291,4.10104 0.493226,-0.92604 c 1.233908,-2.31668 3.016367,-3.43958 5.459895,-3.43958 3.04564,0 5.06335,1.76103 5.39704,4.71048 0.28317,2.50287 0.39294,2.43327 -3.83785,2.43327 -2.02172,0 -3.67586,0.0674 -3.67586,0.14969 0,0.2883 0.61114,1.30735 0.89951,1.49991 0.6676,0.44577 2.3338,0.20046 3.1175,-0.45898 0.58105,-0.48891 1.09354,-0.66145 1.96472,-0.66145 1.41371,0 1.6925,0.44169 1.08409,1.71754 -1.03961,2.18009 -4.14528,3.2778 -6.87308,2.42931 z m 3.61896,-7.54637 c 0.25586,-0.41399 -0.90665,-1.36298 -1.66965,-1.36298 -0.81874,0 -2.23721,0.95488 -1.99666,1.3441 0.18911,0.30598 3.4784,0.32292 3.66631,0.0189 z m -15.425144,7.26998 c -0.213331,-0.25705 -0.280649,-2.55256 -0.230834,-7.87136 l 0.07032,-7.50848 h 1.719792 1.719792 l 0.07028,7.65475 c 0.05461,5.94771 -0.0044,7.70214 -0.264584,7.8673 -0.557903,0.35413 -2.756979,0.25275 -3.084771,-0.14221 z" id="path882" />
      <path style="display:none;fill:#92b1d2;stroke-width:0.264583" d="m 37.006526,153.76203 c 0,-0.13584 1.309688,-4.14311 2.910417,-8.90505 1.600729,-4.76195 2.910417,-8.86682 2.910417,-9.12195 0,-0.29782 -2.151924,-2.05809 -6.011393,-4.91732 -3.530851,-2.61578 -5.835411,-4.48734 -5.584913,-4.53558 0.234564,-0.0452 3.547901,0.52567 7.362972,1.26854 3.815071,0.74287 7.120689,1.31467 7.345815,1.27065 0.296471,-0.058 0.799682,-1.61189 1.825197,-5.63627 1.683948,-6.60826 1.65603,-6.52554 1.964518,-5.82084 0.127405,0.29104 0.837232,2.9679 1.577396,5.94856 0.740161,2.98067 1.486529,5.50892 1.658598,5.61835 0.17207,0.10942 2.96902,0.20077 6.215447,0.203 3.727902,0.003 5.8444,0.0982 5.744641,0.25962 -0.08687,0.14057 -2.058432,1.50585 -4.381241,3.03396 -2.427097,1.59672 -4.223287,2.95188 -4.223287,3.18631 0,0.22436 1.316652,3.03915 2.92589,6.25508 1.609241,3.21594 2.8536,5.91945 2.765242,6.00781 -0.08835,0.0884 -2.834441,-1.17468 -6.102413,-2.80675 -3.267972,-1.63207 -6.090902,-2.9674 -6.273179,-2.9674 -0.182274,0 -3.008331,2.67891 -6.280124,5.95313 -3.271793,3.27422 -6.039004,5.95312 -6.149357,5.95312 -0.110354,0 -0.200643,-0.11113 -0.200643,-0.24697 z m 29.727791,-0.80913 c -1.892086,-0.76355 -2.161919,-4.19713 -0.436497,-5.55434 1.322353,-1.04017 4.046207,-0.31757 4.046207,1.0734 0,0.66146 -0.583144,0.65205 -1.190625,-0.0192 -0.476938,-0.52701 -1.589259,-0.69656 -2.143204,-0.32668 -0.575286,0.38413 -0.951037,1.45808 -0.790678,2.25987 0.373739,1.86869 2.055066,2.39719 3.073982,0.96626 0.445254,-0.6253 0.652428,-0.7388 0.92923,-0.50907 0.279111,0.23164 0.291007,0.43877 0.05496,0.95684 -0.532194,1.16804 -2.178519,1.70371 -3.543375,1.15292 z m 5.55625,0.006 c -1.29512,-0.53566 -1.747605,-2.04144 -1.030285,-3.42859 0.643231,-1.24387 2.066944,-1.46132 3.1555,-0.48194 0.639728,0.57556 0.785556,1.02437 0.721212,2.21965 -0.0684,1.27067 -1.625706,2.19576 -2.846427,1.69088 z m 1.478701,-1.18127 c 0.173267,-0.20878 0.277143,-0.77432 0.230833,-1.25677 -0.06561,-0.68352 -0.218848,-0.89627 -0.694074,-0.96363 -0.817898,-0.11595 -1.3745,0.39289 -1.3745,1.25655 0,1.20949 1.138373,1.80654 1.837741,0.96385 z m 5.018902,0.66236 c -0.747069,-0.74707 -0.821417,-0.9572 -0.688726,-1.94648 0.191836,-1.43024 1.013923,-2.14645 2.236121,-1.94811 0.801563,0.13007 0.888812,0.0762 1.031372,-0.63658 0.08566,-0.42827 0.319447,-0.77867 0.519538,-0.77867 0.286632,0 0.363803,0.61736 0.363803,2.91041 0,2.66936 -0.04109,2.91042 -0.496094,2.91042 -0.272852,0 -0.863394,0.0735 -1.312318,0.16325 -0.679706,0.13594 -0.956291,0.0232 -1.653696,-0.67423 z m 2.308328,-1.04863 c 0.407009,-0.81946 0.07439,-1.72256 -0.675521,-1.83413 -1.144434,-0.17028 -1.69614,0.92164 -1.063214,2.10428 0.374163,0.69913 1.331174,0.55044 1.738735,-0.27015 z m 3.005863,1.48822 c -1.463418,-0.75435 -1.648243,-2.86575 -0.340879,-3.89412 0.895583,-0.70447 1.736276,-0.67226 2.635216,0.10098 1.932443,1.66222 -0.05476,4.94759 -2.294337,3.79314 z m 1.700892,-1.13812 c 0.228677,-0.22868 0.415775,-0.59369 0.415775,-0.81115 0,-1.40541 -1.612509,-1.96962 -2.164808,-0.75745 -0.634669,1.39294 0.714608,2.60302 1.749033,1.5686 z m 2.995462,1.28136 -0.992187,-0.10378 v -2.89445 c 0,-2.3339 0.0733,-2.89444 0.378473,-2.89444 0.208161,0 0.41652,0.26789 0.463021,0.59531 0.06317,0.4448 0.285237,0.6144 0.878297,0.67079 1.627056,0.15471 2.513542,1.07281 2.513542,2.60316 0,0.7317 -1.322168,2.24461 -1.897877,2.17168 -0.193093,-0.0245 -0.797566,-0.0912 -1.343269,-0.14827 z m 1.96637,-1.52705 c 0.43252,-0.94928 -0.07609,-1.98437 -0.975058,-1.98437 -0.93114,0 -1.375868,1.13174 -0.793806,2.02009 0.538412,0.82171 1.385991,0.8046 1.768864,-0.0357 z m 2.10366,1.29129 c -0.655203,-0.45893 -0.741521,-1.47629 -0.165796,-1.9541 0.219179,-0.1819 0.775825,-0.4079 1.236991,-0.50222 1.038498,-0.21239 1.32484,-0.81934 0.386543,-0.81934 -0.36734,0 -0.741476,0.11906 -0.831413,0.26458 -0.248349,0.40184 -0.926042,0.316 -0.926042,-0.11729 0,-0.5292 1.039807,-1.20645 1.84481,-1.20158 1.165458,0.007 1.415412,0.37614 1.632834,2.41097 0.113252,1.05991 0.180784,1.94549 0.150071,1.96794 -0.03071,0.0225 -0.665109,0.10955 -1.409769,0.19355 -0.974725,0.10996 -1.511977,0.042 -1.918229,-0.24251 z m 2.032085,-1.22514 c 0.05964,-0.31291 -0.0791,-0.46302 -0.427921,-0.46302 -0.578554,0 -1.205598,0.61009 -0.920285,0.8954 0.33563,0.33563 1.258221,0.0397 1.348206,-0.43238 z m -19.146325,1.05247 c -0.08033,-0.20934 -0.110154,-1.14038 -0.06628,-2.069 l 0.07976,-1.68839 0.9941,-0.16063 c 1.308611,-0.21145 1.917605,0.38037 0.878562,0.85379 -0.708644,0.32288 -0.881189,0.72057 -1.007491,2.32211 -0.07421,0.94099 -0.624109,1.40544 -0.878652,0.74212 z m -3.029228,-5.05497 c 0,-0.49971 0.704789,-1.04465 1.06398,-0.82266 0.20093,0.12418 0.14996,0.33985 -0.161708,0.68424 -0.535969,0.59223 -0.902272,0.64843 -0.902272,0.13842 z m -44.053126,-2.12327 c -0.436563,-0.1927 -1.031875,-0.6179 -1.322917,-0.94489 l -0.529166,-0.59451 -0.134891,0.7568 -0.134889,0.7568 h -3.966152 -3.966152 l -0.07022,-7.61895 -0.07022,-7.61895 1.790015,0.0783 1.790015,0.0783 0.07111,6.01928 0.07111,6.01927 h 2.243991 c 1.85023,0 2.243991,-0.072 2.243991,-0.41002 0,-0.75373 0.794682,-1.95813 1.549588,-2.3485 0.410784,-0.21243 1.569628,-0.51894 2.575209,-0.68113 2.513696,-0.40546 3.018953,-0.64648 3.018953,-1.44016 0,-1.37707 -2.042387,-1.6462 -3.1255,-0.41186 -0.608699,0.69369 -0.872528,0.79375 -2.092794,0.79375 -1.231177,0 -1.396289,-0.0641 -1.396289,-0.54231 0,-1.96677 1.985645,-3.16186 5.253451,-3.16186 2.455355,0 3.958807,0.55836 4.458913,1.65598 0.163019,0.35778 0.328989,2.61343 0.376321,5.11445 l 0.08468,4.47436 -1.168434,0.0838 c -0.64264,0.0461 -1.435677,-0.0592 -1.762305,-0.234 -0.479609,-0.25668 -0.801808,-0.23463 -1.674642,0.11461 -1.292638,0.51721 -3.021618,0.543 -4.112774,0.0614 z m 4.371442,-2.27787 c 0.514163,-0.27517 1.147114,-2.01102 0.886845,-2.43214 -0.198513,-0.3212 -2.471895,0.023 -3.207766,0.48566 -0.646347,0.40638 -0.789663,1.38483 -0.277813,1.89668 0.386962,0.38696 1.914063,0.41623 2.598734,0.0498 z m 34.418315,2.25111 c -1.442731,-0.44987 -3.123362,-2.05209 -3.511537,-3.34771 -0.452861,-1.5115 -0.207452,-1.8107 1.485183,-1.8107 1.422188,0 1.470789,0.0248 1.971458,1.00619 0.61318,1.20194 1.461656,1.63964 3.178365,1.63964 0.897338,0 1.485467,-0.16572 1.986328,-0.55969 1.48489,-1.16802 0.288243,-2.43856 -3.03734,-3.2249 -1.082656,-0.25599 -2.441191,-0.73139 -3.018973,-1.05643 -3.247932,-1.8272 -2.96147,-6.01606 0.521343,-7.62349 1.204622,-0.55597 4.146836,-0.66809 5.761919,-0.21958 1.365229,0.37913 2.768018,1.6767 3.134284,2.89919 0.462949,1.54518 0.225176,1.8474 -1.453431,1.8474 -1.356892,0 -1.467384,-0.0508 -1.973254,-0.90824 -0.906783,-1.53688 -3.579027,-1.85413 -4.447908,-0.52805 -0.294167,0.44895 -0.326586,0.74005 -0.124484,1.11768 0.321797,0.60128 1.002813,0.88932 3.891367,1.64583 1.178462,0.30864 2.519003,0.79004 2.978981,1.06977 1.020514,0.62061 1.887495,1.97964 1.888829,2.96083 0.0011,0.86724 0.275219,0.932 0.74703,0.17651 0.467421,-0.74846 2.230062,-1.46899 4.148751,-1.69593 1.988206,-0.23516 2.513542,-0.51206 2.513542,-1.32486 0,-1.36297 -2.034913,-1.61734 -3.175,-0.39687 -0.634153,0.67886 -0.934474,0.79375 -2.074913,0.79375 -0.733393,0 -1.409552,-0.12315 -1.502574,-0.27366 -0.353084,-0.5713 0.816187,-2.23281 1.995233,-2.83519 1.590366,-0.81253 5.252258,-0.85616 6.528817,-0.0778 1.525167,0.92995 1.625745,1.29875 1.698881,6.22935 l 0.06672,4.49791 -1.157626,0.0838 c -0.636694,0.0461 -1.414952,-0.0539 -1.729463,-0.22221 -0.449061,-0.24033 -0.837845,-0.21572 -1.810827,0.11461 -2.863601,0.97222 -5.470879,0.0248 -5.876099,-2.13521 -0.149273,-0.79569 -0.636064,-1.27011 -0.636064,-0.6199 0,0.1451 -0.429958,0.73973 -0.955463,1.3214 -1.555785,1.72207 -5.096333,2.36571 -8.012073,1.45652 z m 15.852521,-2.25111 c 0.514162,-0.27517 1.147112,-2.01102 0.886844,-2.43214 -0.198512,-0.3212 -2.471897,0.023 -3.207766,0.48566 -0.646348,0.40638 -0.789663,1.38483 -0.277813,1.89668 0.386961,0.38696 1.914062,0.41623 2.598735,0.0498 z m 17.059811,2.34587 c -2.373099,-0.87781 -3.663374,-2.81675 -3.674034,-5.52109 -0.0081,-2.05259 0.720487,-3.59033 2.304386,-4.86364 0.880692,-0.708 1.260458,-0.82581 2.934568,-0.91035 2.33967,-0.11815 3.76789,0.48862 4.79171,2.03573 0.63891,0.96545 1.32303,3.83174 1.02836,4.30853 -0.0771,0.12475 -1.793,0.22682 -3.81312,0.22682 -2.08913,0 -3.74138,0.11074 -3.83165,0.25681 -0.219765,0.35558 0.54349,1.75982 1.06538,1.96008 0.91252,0.35017 2.15971,0.14561 3.03085,-0.4971 1.01447,-0.74845 2.82825,-0.91887 3.07016,-0.28847 0.23652,0.61637 -0.63623,1.96589 -1.74655,2.70067 -1.19364,0.78991 -3.81271,1.09039 -5.16006,0.59201 z m 3.9141,-7.00651 c 0.0912,-0.0912 -0.003,-0.49279 -0.20989,-0.89241 -0.36123,-0.69853 -1.04566,-1.04714 -2.07092,-1.0548 -0.59849,-0.004 -2.125945,1.47944 -1.89969,1.84554 0.1775,0.2872 3.90433,0.37784 4.1805,0.10167 z m -15.563094,6.72445 c -0.07354,-0.19163 -0.101971,-3.62094 -0.06319,-7.6207 l 0.07051,-7.27229 1.525435,-0.0795 1.525434,-0.0795 -0.07023,7.6201 -0.07023,7.62009 -1.39202,0.0801 c -0.967381,0.0557 -1.432807,-0.0262 -1.52572,-0.26834 z m 4.233333,0 c -0.07354,-0.19163 -0.10197,-3.62094 -0.06319,-7.6207 l 0.07051,-7.27229 1.500574,-0.0787 1.500574,-0.0787 0.08693,4.97352 c 0.04781,2.73543 0.02739,6.16414 -0.04537,7.61935 l -0.132291,2.64583 -1.392021,0.0801 c -0.96738,0.0557 -1.432806,-0.0262 -1.52572,-0.26834 z" id="path880" />
      <path style="display:none;fill:#729ac5;stroke-width:0.264583" d="m 37.006526,153.76203 c 0,-0.13584 1.309688,-4.14311 2.910417,-8.90505 1.600729,-4.76195 2.910417,-8.86682 2.910417,-9.12195 0,-0.29782 -2.151924,-2.05809 -6.011393,-4.91732 -3.530851,-2.61578 -5.835411,-4.48734 -5.584913,-4.53558 0.234564,-0.0452 3.547901,0.52567 7.362972,1.26854 3.815071,0.74287 7.120689,1.31467 7.345815,1.27065 0.296471,-0.058 0.799682,-1.61189 1.825197,-5.63627 1.683948,-6.60826 1.65603,-6.52554 1.964518,-5.82084 0.127405,0.29104 0.837232,2.9679 1.577396,5.94856 0.740161,2.98067 1.486529,5.50892 1.658598,5.61835 0.17207,0.10942 2.96902,0.20077 6.215447,0.203 3.727902,0.003 5.8444,0.0982 5.744641,0.25962 -0.08687,0.14057 -2.058432,1.50585 -4.381241,3.03396 -2.427097,1.59672 -4.223287,2.95188 -4.223287,3.18631 0,0.22436 1.316652,3.03915 2.92589,6.25508 1.609241,3.21594 2.8536,5.91945 2.765242,6.00781 -0.08835,0.0884 -2.834441,-1.17468 -6.102413,-2.80675 -3.267972,-1.63207 -6.090902,-2.9674 -6.273179,-2.9674 -0.182274,0 -3.008331,2.67891 -6.280124,5.95313 -3.271793,3.27422 -6.039004,5.95312 -6.149357,5.95312 -0.110354,0 -0.200643,-0.11113 -0.200643,-0.24697 z m 28.995395,-1.62541 c -0.508556,-0.60438 -0.684977,-1.11227 -0.684977,-1.97193 0,-1.57169 0.429657,-2.39817 1.514292,-2.91286 1.061532,-0.50373 2.041316,-0.34492 2.917479,0.47291 1.085297,1.01303 0.536564,1.40104 -0.655408,0.46343 -0.891429,-0.7012 -1.545428,-0.66749 -2.33318,0.12027 -1.116635,1.11663 -0.794525,3.34064 0.558326,3.85499 0.790689,0.30062 1.888795,-0.13628 2.112277,-0.84041 0.187646,-0.59123 0.913297,-0.65488 0.913297,-0.0801 0,0.2249 -0.292245,0.70115 -0.649433,1.05834 -0.495218,0.49522 -0.929423,0.64943 -1.828562,0.64943 -0.99187,0 -1.287915,-0.12928 -1.864111,-0.81405 z m 5.859799,0.48332 c -1.333712,-1.01278 -1.030574,-3.33335 0.512056,-3.91985 1.955686,-0.74355 3.53873,1.83166 2.184381,3.55344 -0.607121,0.77183 -1.92646,0.95111 -2.696437,0.36641 z m 2.177166,-0.97479 c 0.394848,-0.73779 0.340249,-1.19974 -0.224195,-1.8968 -0.439605,-0.54289 -0.579395,-0.57806 -1.190625,-0.29957 -0.544658,0.24817 -0.692539,0.5032 -0.692539,1.19434 0,0.48334 0.142875,1.02167 0.3175,1.1963 0.486072,0.48607 1.483702,0.37779 1.789859,-0.19427 z m 4.785437,0.78998 c -0.380773,-0.38077 -0.542796,-0.88595 -0.542796,-1.69241 0,-1.45512 0.578263,-2.02538 2.053781,-2.02538 0.988121,0 1.093621,-0.0656 1.169792,-0.72761 0.04605,-0.40018 0.202782,-0.69784 0.348303,-0.66146 0.154879,0.0387 0.264583,1.19063 0.264583,2.77813 v 2.71198 l -1.375434,0.0798 c -1.102511,0.064 -1.483138,-0.0279 -1.918229,-0.46302 z m 2.374971,-0.82111 c 0.401675,-0.75053 0.305028,-1.4485 -0.273007,-1.97162 -0.438127,-0.39649 -0.644967,-0.42758 -1.190625,-0.17896 -0.519161,0.23654 -0.660385,0.49693 -0.660385,1.2176 0,1.51311 1.468356,2.15809 2.124017,0.93298 z m 2.42002,0.72429 c -0.75179,-0.80025 -0.775097,-2.36283 -0.04612,-3.09181 0.327581,-0.32758 0.881944,-0.52916 1.455209,-0.52916 1.252659,0 1.984375,0.76349 1.984375,2.07054 0,1.92155 -2.130399,2.89489 -3.393464,1.55043 z m 2.553401,-1.35928 c 0.08977,-0.75283 -0.569804,-1.73253 -1.166421,-1.73253 -1.144,0 -1.58147,2.062 -0.585475,2.75963 0.495826,0.34729 0.664035,0.35493 1.124479,0.0511 0.297791,-0.19648 0.580128,-0.68168 0.627417,-1.07823 z m 1.724663,1.56218 c -0.228717,-0.59603 0.04533,-5.27834 0.306025,-5.22855 0.145521,0.0278 0.328858,0.32545 0.407418,0.66146 0.116914,0.50006 0.344162,0.62565 1.252268,0.69206 1.335029,0.0976 1.912189,0.76973 1.912189,2.2267 0,1.48289 -0.711989,2.07291 -2.412172,1.99893 -0.744585,-0.0324 -1.404162,-0.19017 -1.465728,-0.3506 z m 3.041435,-1.29672 c 0.286322,-1.44585 -0.872042,-2.44938 -1.828329,-1.58395 -0.665485,0.60225 -0.649105,1.56373 0.03835,2.25119 0.493573,0.49357 0.606293,0.51029 1.12448,0.16683 0.316756,-0.20996 0.616227,-0.58529 0.665495,-0.83407 z m 1.76869,1.27769 c -0.221681,-0.22168 -0.403058,-0.55469 -0.403058,-0.74003 0,-0.45474 0.867695,-1.21273 1.388255,-1.21273 0.711967,0 1.257578,-0.30286 1.257578,-0.69807 0,-0.59167 -0.735161,-0.7241 -1.443453,-0.26 -0.355092,0.23266 -0.703503,0.32936 -0.77425,0.21489 -0.367004,-0.59382 1.057267,-1.3702 2.135518,-1.16408 0.815234,0.15584 1.039929,0.63588 1.207241,2.57916 l 0.137578,1.59793 -1.551175,0.043 c -1.082752,0.03 -1.672892,-0.0787 -1.954234,-0.36007 z m 2.394228,-0.92543 c 0.243996,-0.39479 -0.351486,-0.73009 -0.996884,-0.56131 -0.658114,0.1721 -0.932606,0.8402 -0.464151,1.12972 0.373663,0.23094 1.15484,-0.073 1.461035,-0.56841 z m -19.147426,-0.79813 0.07826,-1.93965 0.992188,-0.0753 c 1.144206,-0.0869 1.271997,0.21867 0.345368,0.82583 -0.507016,0.33221 -0.664279,0.69173 -0.727604,1.66339 -0.04686,0.71894 -0.224785,1.28701 -0.423632,1.3525 -0.264388,0.0871 -0.324938,-0.33097 -0.264584,-1.82673 z m -3.0675,-3.51727 c 0.187693,-0.48912 0.992762,-0.57185 0.830784,-0.0854 -0.06057,0.1819 -0.308194,0.36915 -0.550288,0.4161 -0.306949,0.0595 -0.391843,-0.0406 -0.280496,-0.33073 z m -43.367467,-1.74394 c -0.610052,-0.10957 -1.363764,-0.52831 -1.918229,-1.06573 -0.82984,-0.80431 -0.913333,-0.83384 -0.913333,-0.32306 0,1.1785 -0.607877,1.39398 -3.921503,1.39011 -1.699476,-0.002 -3.357846,-0.0754 -3.685268,-0.16316 l -0.595313,-0.15953 v -7.34917 c 0,-6.4574 0.05078,-7.36866 0.418515,-7.50977 0.742675,-0.28499 2.718775,-0.17061 2.939308,0.17013 0.117729,0.1819 0.273584,2.95011 0.346344,6.15156 l 0.132292,5.82084 2.154499,0.0764 2.154499,0.0764 0.359043,-1.12681 c 0.449527,-1.41078 1.591892,-2.22119 3.470768,-2.46223 0.762405,-0.0978 1.820433,-0.28869 2.351173,-0.42418 1.996431,-0.50967 1.54255,-2.35727 -0.579085,-2.35727 -0.839327,0 -1.140851,0.14789 -1.618358,0.79375 -0.511552,0.69191 -0.751259,0.79375 -1.868308,0.79375 -1.536053,0 -1.804476,-0.40623 -1.083797,-1.6402 0.767664,-1.31442 1.966959,-1.87339 4.310521,-2.00906 1.662473,-0.0962 2.264881,-0.0169 3.279357,0.43184 1.807836,0.79969 2.018647,1.47724 2.018647,6.48791 0,3.47747 -0.06191,4.10499 -0.418515,4.24183 -0.737908,0.28316 -1.828189,0.17237 -2.426289,-0.24656 -0.505155,-0.35382 -0.677485,-0.35871 -1.315642,-0.0373 -0.975983,0.49152 -2.359303,0.66083 -3.591326,0.43955 z m 3.995872,-2.80443 c 0.419765,-0.47726 0.584628,-0.95133 0.529167,-1.52163 -0.07279,-0.74848 -0.15713,-0.82028 -0.874309,-0.74437 -2.446504,0.25896 -3.539726,1.01579 -3.166391,2.19207 0.381395,1.20167 2.480798,1.24587 3.511533,0.0739 z m 34.400088,2.70485 c -2.129666,-0.57344 -3.728451,-2.13683 -3.951735,-3.86424 -0.134229,-1.03843 0.212384,-1.32292 1.611789,-1.32292 1.222901,0 1.309124,0.0483 1.770322,0.99219 0.648409,1.327 1.953024,1.99546 3.510333,1.79865 1.623388,-0.20517 2.398437,-0.76502 2.398437,-1.73251 0,-1.02501 -0.72086,-1.48289 -3.620064,-2.29938 -3.293642,-0.92759 -4.259889,-1.48606 -4.860679,-2.80937 -0.642379,-1.41492 -0.640974,-2.13705 0.0068,-3.4751 1.304798,-2.69536 5.673283,-3.63294 8.985377,-1.92847 1.406435,0.72377 2.704748,2.82215 2.222685,3.59237 -0.603597,0.96442 -2.792243,0.67827 -3.37089,-0.4407 -1.150334,-2.22451 -5.521282,-1.56696 -4.795004,0.72133 0.186113,0.5864 1.355212,1.08816 4.047721,1.73723 3.05068,0.73541 4.507113,2.01221 4.74963,4.1638 0.412261,3.65757 -4.011213,6.1309 -8.704688,4.86712 z m 11.821438,0.11881 c -1.188405,-0.28133 -1.93919,-0.83989 -2.381327,-1.77163 -1.119836,-2.35987 0.285491,-4.28779 3.443145,-4.72353 2.36012,-0.32568 3.262299,-0.64446 3.443988,-1.21692 0.445884,-1.40486 -2.183381,-2.18737 -3.304873,-0.98358 -0.296712,0.31848 -0.539475,0.68189 -0.539475,0.80757 0,0.12569 -0.625078,0.19254 -1.389062,0.14855 -1.169102,-0.0673 -1.4014,-0.16622 -1.466975,-0.62464 -0.110096,-0.76968 0.905309,-1.94936 2.173783,-2.52547 1.591386,-0.72277 4.453906,-0.67801 5.984004,0.0936 1.606204,0.80996 1.808695,1.52525 1.827067,6.45398 0.01275,3.41845 -0.0465,4.03016 -0.403582,4.16719 -0.737907,0.28316 -1.828189,0.17237 -2.426287,-0.24656 -0.505421,-0.35401 -0.677151,-0.35881 -1.315644,-0.0368 -0.95695,0.48263 -2.645185,0.69489 -3.644762,0.45826 z m 3.935431,-2.64152 c 0.29731,-0.2973 0.51073,-0.90724 0.530085,-1.51492 0.03114,-0.9777 0.0016,-1.01412 -0.761349,-0.93695 -2.421584,0.24495 -3.539512,1.0202 -3.166391,2.1958 0.348747,1.0988 2.400303,1.25343 3.397655,0.25607 z m 18.289573,2.76311 c -0.14552,-0.0509 -0.71362,-0.16771 -1.26243,-0.25957 -1.244048,-0.20821 -2.765291,-1.5119 -3.403506,-2.91676 -0.295632,-0.65076 -0.481187,-1.67406 -0.480179,-2.64811 0.0032,-3.08744 1.899274,-5.30458 4.791735,-5.60311 3.26061,-0.33652 5.50427,1.4187 6.0251,4.71347 0.17655,1.11685 0.13745,1.34548 -0.26716,1.56202 -0.26069,0.13952 -2.02962,0.25367 -3.93096,0.25367 -3.24754,0 -3.456979,0.0312 -3.456979,0.51441 0,0.28293 0.285019,0.84577 0.633379,1.25076 0.86601,1.00679 2.33795,1.01254 3.77777,0.0148 1.02927,-0.71329 1.7648,-0.8733 2.57867,-0.56099 0.23018,0.0883 0.41851,0.30502 0.41851,0.48154 0,0.60477 -1.86015,2.4945 -2.71623,2.75942 -1.13585,0.3515 -2.38033,0.55303 -2.70772,0.4385 z m 2.51354,-7.37625 c 0,-0.19866 -0.24677,-0.67491 -0.54837,-1.05834 -0.75149,-0.95536 -2.36908,-0.97875 -3.30012,-0.0477 -1.202463,1.20246 -0.913824,1.46723 1.59953,1.46723 1.72394,0 2.24896,-0.0843 2.24896,-0.36119 z m -15.411981,6.95458 c -0.422765,-0.24624 -0.463021,-0.88682 -0.463021,-7.36789 0,-7.9683 -0.04625,-7.78213 1.898676,-7.64219 l 1.144032,0.0823 0.07042,7.39008 c 0.05465,5.73593 -0.0046,7.43768 -0.264583,7.60272 -0.466151,0.29589 -1.829678,0.25872 -2.38552,-0.065 z m 4.233333,0 c -0.422764,-0.24624 -0.463021,-0.88682 -0.463021,-7.36789 0,-7.9683 -0.04625,-7.78213 1.898677,-7.64219 l 1.144032,0.0823 0.07042,7.39008 c 0.05465,5.73593 -0.0046,7.43768 -0.264583,7.60272 -0.466151,0.29589 -1.829679,0.25872 -2.385521,-0.065 z" id="path878" />
      <path style="display:inline;fill:#fcc90b;stroke-width:0.264583" d="m 37.006526,153.76203 c 0,-0.13584 1.309688,-4.14311 2.910417,-8.90505 1.600729,-4.76195 2.910417,-8.86682 2.910417,-9.12195 0,-0.29782 -2.151924,-2.05809 -6.011393,-4.91732 -3.530851,-2.61578 -5.835411,-4.48734 -5.584913,-4.53558 0.234564,-0.0452 3.547901,0.52567 7.362972,1.26854 3.815071,0.74287 7.120689,1.31467 7.345815,1.27065 0.296471,-0.058 0.799682,-1.61189 1.825197,-5.63627 1.683948,-6.60826 1.65603,-6.52554 1.964518,-5.82084 0.127405,0.29104 0.837232,2.9679 1.577396,5.94856 0.740161,2.98067 1.486529,5.50892 1.658598,5.61835 0.17207,0.10942 2.96902,0.20077 6.215447,0.203 3.727902,0.003 5.8444,0.0982 5.744641,0.25962 -0.08687,0.14057 -2.058432,1.50585 -4.381241,3.03396 -2.427097,1.59672 -4.223287,2.95188 -4.223287,3.18631 0,0.22436 1.316652,3.03915 2.92589,6.25508 1.609241,3.21594 2.8536,5.91945 2.765242,6.00781 -0.08835,0.0884 -2.834441,-1.17468 -6.102413,-2.80675 -3.267972,-1.63207 -6.090902,-2.9674 -6.273179,-2.9674 -0.182274,0 -3.008331,2.67891 -6.280124,5.95313 -3.271793,3.27422 -6.039004,5.95312 -6.149357,5.95312 -0.110354,0 -0.200643,-0.11113 -0.200643,-0.24697 z" id="path876" sodipodi:nodetypes="ssssssssssscssssssssss" />
      <path style="display:inline;fill:#0e539d;stroke-width:0.264583" d="m 68.578304,145.27699 c -2.092489,-0.43451 -3.835334,-1.80956 -4.216014,-3.32631 -0.266973,-1.0637 0.04096,-1.43541 1.189143,-1.43541 0.938925,0 1.093994,0.0985 1.529657,0.97121 0.662628,1.32742 1.975665,2.00336 3.613375,1.86014 1.607445,-0.14057 2.665148,-0.89317 2.773373,-1.97337 0.107053,-1.06854 -0.709842,-1.82075 -2.523339,-2.32352 -0.766823,-0.2126 -2.041147,-0.56616 -2.831835,-0.78569 -2.601461,-0.72229 -3.92121,-2.54867 -3.330361,-4.60884 0.67106,-2.33986 2.279192,-3.32244 5.429433,-3.31744 2.717178,0.004 4.202263,0.72787 5.084786,2.47738 0.322776,0.63987 0.524108,1.26495 0.447405,1.38906 -0.239218,0.38707 -2.754066,0.27283 -2.754066,-0.1251 0,-0.77389 -1.294432,-1.58774 -2.709945,-1.70383 -1.702525,-0.13964 -2.846306,0.57091 -2.846306,1.7682 0,1.08468 0.619567,1.47273 3.836459,2.40286 3.403579,0.98411 4.496194,1.69491 4.897774,3.18627 0.798187,2.96423 -1.271532,5.28366 -5.030066,5.63692 -0.800364,0.0752 -1.952127,0.0336 -2.559473,-0.0925 z M 26.836251,142.3001 c 0,-2.03858 0.478638,-2.63224 4.115434,-3.19967 1.991476,-0.31072 3.409008,-0.71211 3.409008,-1.62787 0,-0.88728 -0.818587,-1.4552 -2.097493,-1.4552 -0.444224,0 -1.266491,0.12188 -1.666237,0.50091 -0.178904,0.16963 -0.593717,1.0243 -0.593717,1.0243 -1.437249,0.0622 -1.180404,0.0622 -1.437249,0.0622 -0.596459,0 -1.165544,0.035 -1.165544,-0.10367 0,-0.66855 0.574306,-1.90856 1.427761,-2.43935 0.796271,-0.49522 1.508016,-0.78059 3.510767,-0.77975 2.677422,10e-4 3.973485,0.28654 4.46213,2.05913 0.287545,1.04309 0.203035,2.62738 0.20394,4.90166 l 0.0015,3.77031 h -1.137708 c -0.62574,0 -1.272809,-0.1351 -1.437933,-0.30023 -0.22391,-0.2239 -1.798058,0.29596 -2.604252,0.61853 -0.746659,0.29875 -2.605552,0.31805 -3.759325,-0.46743 -0.906589,-0.6172 -1.231082,-1.94816 -1.231082,-2.56396 z m 6.163154,1.27773 c 0.832031,-0.43026 1.296892,-1.3044 1.296892,-2.42063 0,-0.11368 0.02772,-0.32363 0.0034,-0.60418 -0.01372,-0.15843 0.09614,-0.46689 -0.170527,-0.47889 -0.1989,-0.009 -0.700253,0.14607 -1.131295,0.23062 -0.779746,0.15295 -1.672813,0.30246 -2.037372,0.438 -1.440679,0.53563 -1.54435,1.97219 -0.679806,2.65224 0.82982,0.65273 1.697196,0.71107 2.718685,0.18284 z m 45.934394,1.44819 c -1.759219,-0.71309 -2.096862,-3.89874 -0.522549,-4.93027 0.347951,-0.22798 1.681496,-0.59444 2.963437,-0.81434 3.096458,-0.53117 3.850492,-1.24042 2.844964,-2.67602 -0.330594,-0.47198 -0.668433,-0.58803 -1.711873,-0.58803 -1.137637,0 -1.373283,0.0991 -1.886836,0.79375 -0.494237,0.66849 -0.766882,0.79375 -1.727714,0.79375 -1.222396,0 -1.312251,-0.12812 -0.830852,-1.18468 0.981482,-2.15412 6.62477,-2.74179 8.343143,-0.86882 0.498721,0.54359 0.559353,1.00345 0.663186,5.03006 l 0.114284,4.43177 h -1.090522 c -0.599787,0 -1.225624,-0.1351 -1.390748,-0.30023 -0.223909,-0.2239 -0.574993,-0.19028 -1.381186,0.1323 -1.136227,0.45462 -3.473482,0.55093 -4.386734,0.18076 z m 4.078786,-1.36443 c 0.470572,-0.16404 1.01261,-0.6246 1.230106,-1.0452 0.430305,-0.83211 0.519139,-2.25394 0.154889,-2.47906 -0.46292,-0.2861 -3.344555,0.42855 -3.93324,0.97546 -0.911643,0.84694 -0.773819,1.89955 0.330729,2.5259 0.675063,0.38281 1.170408,0.38792 2.217516,0.0229 z m 16.832485,1.1756 c -1.886858,-0.99697 -2.766505,-2.53943 -2.766505,-4.85108 0,-3.25171 2.225972,-5.5664 5.337695,-5.55044 2.77808,0.0143 4.96943,2.24586 4.96943,5.06075 v 0.75427 h -3.41794 c -1.87987,0 -3.60627,0.0723 -3.83646,0.1606 -0.531889,0.20411 -0.415444,1.44393 0.10723,2.19012 0.85133,1.21544 2.84004,0.9627 4.11806,0.28012 0,0 0.82586,-0.96135 0.98346,-0.96916 0.31987,-0.0159 1.85014,0.0375 1.85014,0.0375 l -0.12082,0.32059 -0.21281,0.45821 c -0.24971,0.53764 -0.98153,1.65873 -1.95102,2.11879 -1.17744,0.55873 -3.99447,0.55308 -5.060443,-0.0101 z m 4.89479,-6.5829 c 0,-1.84514 -2.90412,-2.70024 -4.32954,-1.27481 -0.38365,0.38364 -0.697542,0.97896 -0.697542,1.32291 0,0.61357 0.04749,0.62538 2.513542,0.62538 h 2.51354 z m -86.206732,-8.08272 3.385658,0.0432 0.06876,12.38978 4.569171,-0.0874 0.02889,2.83402 -7.967146,-0.007 z m 70.451129,14.50655 c -0.07072,-0.18429 -0.09675,-3.42875 -0.05784,-7.2099 l 0.07074,-6.87482 h 1.190625 1.190625 l 0.0704,7.20989 0.0704,7.2099 h -1.203179 c -0.72679,0 -1.254094,-0.13267 -1.331762,-0.33507 z m 4.233333,0 c -0.07072,-0.18429 -0.09675,-3.42875 -0.05784,-7.2099 l 0.07074,-6.87482 h 1.190625 1.190625 l 0.0704,7.20989 0.0704,7.2099 h -1.20318 c -0.726789,0 -1.254093,-0.13267 -1.331762,-0.33507 z" id="path872" sodipodi:nodetypes="ssssssssscssssssssssssssscssscsscssssssssssssssssssssssscsssssssssssscscscsssssccssscsscscssccccsssccccssssscccccssssc" />
   </g>
</svg>