<?xml version="1.0" encoding="UTF-8" standalone="no"?>
<!-- Created with Inkscape (http://www.inkscape.org/) -->

<svg
   width="99.452209mm"
   height="99.353279mm"
   viewBox="0 0 99.45221 99.353279"
   version="1.1"
   id="svg5"
   inkscape:version="1.1.1 (1:1.1+202109281949+c3084ef5ed)"
   sodipodi:docname="other.svg"
   xmlns:inkscape="http://www.inkscape.org/namespaces/inkscape"
   xmlns:sodipodi="http://sodipodi.sourceforge.net/DTD/sodipodi-0.dtd"
   xmlns="http://www.w3.org/2000/svg"
   xmlns:svg="http://www.w3.org/2000/svg">
  <sodipodi:namedview
     id="namedview7"
     pagecolor="#505050"
     bordercolor="#eeeeee"
     borderopacity="1"
     inkscape:pageshadow="0"
     inkscape:pageopacity="0"
     inkscape:pagecheckerboard="true"
     inkscape:document-units="mm"
     showgrid="false"
     fit-margin-top="0"
     fit-margin-left="0"
     fit-margin-right="0"
     fit-margin-bottom="0"
     inkscape:zoom="1.2316716"
     inkscape:cx="153.85595"
     inkscape:cy="205.81785"
     inkscape:window-width="1920"
     inkscape:window-height="1016"
     inkscape:window-x="0"
     inkscape:window-y="27"
     inkscape:window-maximized="1"
     inkscape:current-layer="svg5" />
  <defs
     id="defs2" />
  <path
     style="display:inline;fill:#1a1a1a;stroke-width:0.264583"
     d="M 42.924881,99.028578 C 23.031221,96.199188 6.5973455,81.602138 1.6341475,62.352938 -1.9830175,48.324178 0.45271049,33.933418 8.4643665,21.998668 16.690207,9.7448454 29.832483,1.7879814 44.482895,0.19159741 c 3.51034,-0.382505 10.44715,-0.167672 13.749,0.425807 17.76473,3.19305799 32.12094,15.24393359 38.3942,32.22882359 2.09068,5.66054 3.0074,11.66084 2.79659,18.30467 -0.17404,5.48475 -0.8292,9.282 -2.43078,14.08866 -2.63739,7.91531 -6.78042,14.44733 -12.90486,20.34624 -7.03265,6.77364 -15.79483,11.28808 -25.37632,13.07435 -3.97795,0.7416 -11.86738,0.92574 -15.785844,0.36843 z m 14.846984,-9.63802 c 16.19936,-3.44114 28.28558,-15.52954 31.68254,-31.68823 1.14917,-5.46638 0.92752,-12.94673 -0.54331,-18.33611 -4.10469,-15.04021 -15.8592,-26.11461 -31.17776,-29.3738026 -3.7183,-0.791109 -9.65124,-0.962967 -13.49336,-0.390856 -6.415025,0.9552336 -12.822045,3.4837986 -17.890374,7.0605486 -3.049153,2.1518 -7.466158,6.56881 -9.617961,9.61796 -7.4265275,10.52356 -9.4233915,24.32854 -5.281461,36.5125 1.106149,3.25386 3.58617,8.00477 5.597596,10.72316 6.645097,8.98067 15.650633,14.43363 26.87769,16.27475 3.24567,0.53226 10.43572,0.32459 13.8464,-0.39992 z M 25.42356,58.317158 c -3.372739,-0.73085 -5.73917,-2.92944 -6.724571,-6.24765 -0.554225,-1.86628 -0.528677,-3.02189 0.112718,-5.09849 0.649737,-2.1036 2.35622,-4.12738 4.334425,-5.14033 1.85483,-0.94979 5.070999,-1.14736 7.090039,-0.43556 2.0104,0.70875 4.458047,3.15282 5.209265,5.20164 1.173366,3.20016 0.473088,6.60292 -1.86836,9.07866 -2.172412,2.29701 -5.207003,3.28021 -8.153516,2.64173 z m 20.903785,-0.4757 c -0.97525,-0.37433 -1.90334,-1.01866 -2.820624,-1.9582 -5.482921,-5.61595 -1.5977,-14.91519 6.258504,-14.97967 6.22653,-0.0511 10.40084,6.16194 8.16139,12.14742 -0.76892,2.05513 -2.75094,4.03715 -4.80608,4.80608 -2.02618,0.75809 -4.79403,0.75172 -6.79319,-0.0156 z m 22.33318,-0.17656 c -3.1059,-1.46935 -4.87875,-4.06895 -5.07389,-7.44004 -0.15292,-2.64188 0.56435,-4.60313 2.38905,-6.53249 2.12936,-2.25149 4.53764,-3.10691 7.57679,-2.69127 2.94917,0.40332 5.4207,2.19437 6.7804,4.91357 0.66096,1.32181 0.76743,1.84071 0.77579,3.78102 0.008,1.9743 -0.0852,2.43618 -0.76705,3.7819 -0.92841,1.8323 -2.58476,3.42957 -4.46345,4.30428 -2.0704,0.96396 -5.03433,0.91592 -7.21764,-0.11697 z"
     id="path922" />
  <path
     style="fill:#800000;stroke-width:0.811905"
     d="M 163.22178,374.22316 C 122.49015,368.61984 83.736225,349.11716 54.295756,319.40679 20.993175,285.7989 2.1419383,241.75567 0.63892981,194.04523 -0.36722816,162.10647 5.6491063,133.87804 19.462601,105.72523 49.703738,44.091794 109.92651,4.0294781 177.80714,0.38884115 c 13.25971,-0.71115725 35.03118,0.80959995 47.47382,3.31609025 28.77465,5.7964673 57.76403,19.4607496 80.80712,38.0888106 8.54312,6.906265 21.99343,20.342981 28.4648,28.436017 17.0524,21.325587 31.42907,51.054931 36.83021,76.160781 5.18066,24.08097 5.48521,54.33552 0.78617,78.10112 -5.46716,27.65048 -18.97535,56.97276 -36.28073,78.75476 -6.33793,7.97745 -20.3423,22.22197 -28.98854,29.48566 -24.3024,20.41637 -57.12149,35.39631 -88.49762,40.39381 -9.68761,1.54302 -46.60414,2.27711 -55.18059,1.09727 z m 36.50678,-34.02462 c 13.95662,-0.95449 22.48575,-2.52299 34.1,-6.271 48.70695,-15.71806 85.32049,-52.34183 100.50167,-100.52973 9.03033,-28.66397 8.93448,-63.08859 -0.25539,-91.72043 -15.18488,-47.309823 -51.29437,-83.693809 -98.62247,-99.372136 -17.84642,-5.911964 -31.72334,-7.800456 -52.77381,-7.181916 -16.30978,0.479243 -26.52263,2.292977 -42.48188,7.544499 -13.5916,4.472428 -26.54669,10.72057 -37.95793,18.306824 -12.468165,8.288908 -32.565366,28.384128 -40.850019,40.845999 -13.444005,20.22263 -21.330871,40.94668 -24.901071,65.43172 -2.01748,13.83622 -1.27463,38.19182 1.574185,51.61238 8.311155,39.15324 32.197865,74.36994 65.716365,96.88706 19.45976,13.07272 46.00443,22.39587 70.37535,24.71759 5.97941,0.56964 14.62393,0.47808 25.575,-0.27086 z"
     id="path895"
     transform="scale(0.26458333)" />
  <path
     style="fill:#800000;stroke-width:0.811905"
     d="m 93.79468,219.58895 c -11.502118,-3.22652 -19.355773,-11.35113 -23.068422,-23.86429 -5.030083,-16.95347 7.160283,-36.51782 24.843479,-39.87137 13.058353,-2.47646 22.967573,0.82444 31.729163,10.56944 9.38069,10.43357 11.01678,23.20791 4.64057,36.23275 -6.6068,13.49588 -23.56399,21.02361 -38.14479,16.93347 z"
     id="path934"
     transform="scale(0.26458333)" />
  <path
     style="fill:#800000;stroke-width:0.811905"
     d="m 181.46071,219.93809 c -6.51722,-1.09776 -12.19442,-4.19068 -16.97985,-9.25056 -15.6519,-16.54958 -10.97645,-42.46099 9.4787,-52.53103 5.15319,-2.5369 5.90471,-2.67674 14.38527,-2.67674 8.25424,0 9.32572,0.18498 13.81945,2.38584 21.84844,10.70053 25.25293,41.24489 6.24756,56.05184 -6.79366,5.29289 -17.31623,7.64354 -26.95113,6.02065 z"
     id="path973"
     transform="scale(0.26458333)" />
  <path
     style="fill:#ff0000;stroke-width:0.811905"
     d="m 265.17185,219.55323 c -9.7332,-2.6174 -17.73569,-9.21663 -21.85639,-18.02381 -1.94147,-4.14951 -2.17255,-5.59246 -2.17595,-13.5877 -0.004,-8.44518 0.14295,-9.24344 2.62159,-14.28097 3.20441,-6.51255 9.73415,-12.939 16.24924,-15.99219 4.14314,-1.94162 5.63335,-2.1888 13.1956,-2.1888 7.88694,0 8.9309,0.1923 13.94821,2.56929 7.22072,3.42087 12.00569,8.00272 15.78027,15.11039 3.06416,5.76992 3.11514,6.01116 3.1272,14.79651 0.0113,8.25333 -0.16287,9.26466 -2.2959,13.3293 -2.82744,5.38789 -9.42767,12.50011 -14.19059,15.29136 -6.88875,4.03708 -16.22502,5.17588 -24.40328,2.97662 z"
     id="path1012"
     transform="scale(0.26458333)" />
  <path
     style="fill:#ff0000;stroke-width:0.811905"
     d="M 155.47976,372.74324 C 123.80616,366.60934 94.518109,353.08128 70.229759,333.36654 22.453952,294.58714 -2.3339665,237.89979 1.2776311,175.68031 2.4003708,156.3381 6.2324979,138.5703 13.044138,121.12445 35.488728,63.639755 83.569646,20.818283 142.12646,6.1620943 c 17.73767,-4.4395638 22.10068,-4.9161279 45.01758,-4.9171936 23.70609,-0.0011 32.0398,0.8930348 48.37457,5.1901881 52.97408,13.9357862 96.57348,49.8175732 120.92336,99.5184812 9.60758,19.61018 15.28645,38.43928 17.50828,58.05119 1.2463,11.00098 1.25021,38.10579 0.006,47.49642 -4.97248,37.55533 -22.4911,75.63831 -46.29023,100.62834 -25.66918,26.95368 -46.68218,41.17688 -77.19426,52.25096 -21.65937,7.86107 -30.36555,9.21083 -61.70476,9.56635 -22.29307,0.2529 -26.56478,0.0984 -33.28809,-1.20359 z m 58.27576,-33.7873 c 21.86219,-3.35164 47.69391,-14.54162 66.79514,-28.93483 41.56401,-31.31943 64.3626,-81.96556 60.19039,-133.71048 -1.64521,-20.40433 -5.88995,-36.44016 -14.3854,-54.34546 -12.29888,-25.921492 -32.58591,-48.662146 -57.23214,-64.154061 -6.99463,-4.396618 -23.99647,-12.490239 -31.6845,-15.083206 -18.8762,-6.366428 -32.27038,-8.231476 -54.26466,-7.555981 -20.77947,0.638187 -32.1674,2.952952 -51.66766,10.502217 -19.06149,7.3794 -32.185426,15.747647 -47.296865,30.158009 -16.608186,15.837661 -25.219071,27.379372 -33.899896,45.438152 -6.033181,12.55087 -9.362652,22.30745 -12.366782,36.23922 -2.047021,9.49315 -2.188572,11.46014 -2.191007,30.44643 -0.0023,17.83747 0.219223,21.39947 1.827611,29.38854 9.496163,47.16874 42.454156,89.35477 85.357229,109.25676 13.21755,6.13139 31.10926,11.2741 48.37492,13.90466 4.98081,0.75886 34.38846,-0.31505 42.44362,-1.54997 z"
     id="path1136"
     transform="scale(0.26458333)" />
  <path
     style="fill:#ff0000;stroke-width:0.811905"
     d="m 91.582721,218.55975 c -8.426271,-3.00219 -14.521464,-8.76406 -18.692232,-17.67005 -2.016244,-4.30536 -2.254777,-5.71657 -2.254777,-13.33971 0,-7.68998 0.222294,-8.97767 2.269503,-13.14653 3.27856,-6.67634 8.714439,-12.3444 14.63314,-15.25817 5.865044,-2.88735 13.867945,-4.38094 19.625875,-3.66279 9.48371,1.18283 20.43539,9.37484 25.2563,18.89206 2.15477,4.25386 2.35566,5.37741 2.35566,13.17543 0,7.95264 -0.17536,8.88334 -2.61184,13.86219 -3.19911,6.53726 -9.75822,12.98438 -16.2628,15.98512 -6.2593,2.88758 -17.913337,3.44465 -24.318829,1.16245 z"
     id="path1175"
     transform="scale(0.26458333)" />
  <path
     style="fill:#d40000;stroke-width:0.811905"
     d="m 176.99523,218.42983 c -9.07655,-2.99866 -17.00927,-11.4639 -20.01455,-21.35813 -4.62579,-15.22943 2.48959,-31.28549 17.09959,-38.58567 4.9242,-2.46047 5.69229,-2.60032 14.28163,-2.60032 8.49567,0 9.39534,0.1588 14.0353,2.47742 15.07262,7.53187 21.84319,26.0576 15.56287,42.58329 -2.55895,6.73347 -9.8736,14.04833 -16.6077,16.60817 -6.97106,2.64992 -17.80685,3.03929 -24.35714,0.87524 z"
     id="path1214"
     transform="scale(0.26458333)" />
  <path
     style="fill:#d40000;stroke-width:0.811905"
     d="M 152.23214,371.91223 C 85.125353,356.96679 32.574314,311.26912 11.475684,249.51231 4.0913233,227.8979 1.6253549,212.38602 1.6253549,187.54999 c 0,-26.90188 3.224117,-44.97861 11.9467551,-66.98214 C 26.496883,87.964121 48.529208,58.819046 75.674829,38.416349 96.773466,22.558573 119.03326,12.054872 145.00873,5.6998409 160.27974,1.9637141 167.54198,1.3813054 193.01317,1.850039 c 20.76912,0.3822038 23.91273,0.6264975 33.03329,2.5670577 21.1756,4.5054787 46.57375,14.9428483 63.80353,26.2200573 43.56475,28.513935 74.41009,75.649896 82.97732,126.800896 1.13272,6.76295 1.44205,13.35861 1.4503,30.92385 0.0101,21.39145 -0.0868,22.80385 -2.31018,33.69404 -5.11879,25.07213 -15.17714,49.67647 -28.54422,69.82381 -12.01345,18.10708 -33.78485,39.49966 -53.74232,52.80719 -13.50569,9.00551 -31.92852,17.49061 -50.16899,23.10659 -14.92768,4.59602 -18.55641,4.9772 -50.74405,5.33044 -26.84361,0.2946 -30.28446,0.18048 -36.53571,-1.21174 z m 49.30339,-31.72502 c 13.97965,-0.95463 21.12845,-2.34266 33.91684,-6.58539 51.92493,-17.22681 90.55078,-59.56945 102.18307,-112.01567 10.2671,-46.29105 -1.1414,-94.3735 -31.07598,-130.973352 C 299.69345,82.217995 286.06537,69.431738 277.2331,63.097968 261.80588,52.034844 236.78157,41.103984 217.99642,37.222816 207.82373,35.121055 185.09958,34.364033 171.25515,35.665698 144.04809,38.223729 115.0032,50.033361 93.736415,67.184767 84.940353,74.278689 68.251769,91.826644 62.232749,100.31071 c -6.293554,8.87102 -15.901818,28.00198 -19.471779,38.77015 -5.327936,16.07078 -6.64959,23.79903 -7.178211,41.9739 -0.57743,19.85305 0.424346,31.74415 3.733454,44.31613 13.193872,50.12624 51.425467,91.69785 98.707587,107.33094 23.42264,7.74433 36.73806,9.31366 63.51173,7.48538 z"
     id="path1290"
     transform="scale(0.26458333)" />
  <path
     style="fill:#d40000;stroke-width:0.811905"
     d="m 95.334217,219.20588 c -8.556723,-1.44825 -16.896538,-8.15934 -21.449797,-17.26077 -2.718207,-5.43338 -2.842756,-6.06316 -2.842756,-14.37452 0,-8.06214 0.179205,-9.05081 2.472315,-13.63973 3.204528,-6.41283 10.461599,-13.20497 16.782347,-15.70717 3.756216,-1.48698 6.322076,-1.86651 12.815574,-1.89562 7.35156,-0.033 8.57141,0.1857 12.90442,2.31325 5.94527,2.91917 13.30702,10.16874 16.17939,15.93285 1.94858,3.91029 2.17452,5.26162 2.17452,13.00556 0,7.94762 -0.19264,9.02731 -2.39804,13.43999 -2.84745,5.69734 -9.13826,12.2736 -14.56761,15.22862 -2.20154,1.19823 -6.35347,2.48072 -9.50658,2.9365 -6.28632,0.90867 -7.30926,0.91039 -12.563783,0.021 z"
     id="path1329"
     transform="scale(0.26458333)" />
  <path
     style="fill:#d40000;stroke-width:0.811905"
     d="m 180.82496,219.12218 c -15.63786,-2.6037 -27.7089,-20.63157 -24.5535,-36.67017 1.97863,-10.0572 8.20333,-18.48976 17.28373,-23.41417 4.95364,-2.68641 5.27589,-2.74618 14.80671,-2.74618 9.14054,0 10.01443,0.14296 14.13575,2.31249 19.17204,10.09248 23.5815,36.97301 8.53348,52.02103 -4.84631,4.84631 -10.30314,7.46439 -17.82299,8.55114 -6.39564,0.92428 -6.50982,0.92378 -12.38318,-0.0541 z"
     id="path1368"
     transform="scale(0.26458333)" />
  <path
     style="fill:#ed2939;stroke-width:0.811905;fill-opacity:1"
     d="m 262.98889,218.4837 c -8.1612,-2.9947 -15.20876,-9.0434 -19.15682,-16.44168 -1.69361,-3.17368 -1.88446,-4.60024 -1.88446,-14.08607 0,-10.2122 0.0773,-10.68652 2.38294,-14.61429 3.36109,-5.72588 9.4485,-11.90937 14.4553,-14.68344 4.07918,-2.26012 4.72773,-2.36656 14.42009,-2.36656 9.57518,0 10.39583,0.13006 14.51912,2.30105 6.51831,3.432 11.85636,8.86179 15.11432,15.37407 2.6922,5.38139 2.84275,6.12119 2.84275,13.96857 0,7.58112 -0.20711,8.70071 -2.43391,13.15692 -2.96069,5.92486 -11.30403,14.20667 -16.80668,16.68273 -5.49536,2.47277 -17.64465,2.83991 -23.45265,0.7087 z"
     id="path1407"
     transform="scale(0.26458333)" />
</svg>
